<?xml version="1.0" encoding="utf-8"?>
<!-- Generator: Adobe Illustrator 24.0.3, SVG Export Plug-In . SVG Version: 6.00 Build 0)  -->
<svg version="1.1" id="Layer_1" xmlns="http://www.w3.org/2000/svg" xmlns:xlink="http://www.w3.org/1999/xlink" x="0px" y="0px"
	 viewBox="0 0 315.7 315.7" style="enable-background:new 0 0 315.7 315.7;" xml:space="preserve">
<style type="text/css">
	.st0{fill:#F8B62D;}
	.st1{fill:#231815;}
	.st2{fill:none;}
</style>
<title></title>
<g id="图层_1">
	<circle class="st0" cx="157.9" cy="157.9" r="84.8"/>
	<path class="st1" d="M235.2,157.9c-0.3,31.9-20.3,61.7-50.6,72.6c-31,11.1-65.6,1.6-86.6-23.7c-20.5-24.8-22.9-61.1-6.4-88.7
		s49.8-42.6,81.4-36.1C208.9,89.5,234.8,121.1,235.2,157.9c0.1,9.6,15.1,9.7,15,0c-0.3-38.8-24.6-73.4-61-86.8
		c-36.1-13.3-78.5-1.5-102.7,28.3S58.7,172,78.6,205.2c20,33.4,59.6,50.6,97.7,43.1c42.8-8.5,73.6-47.3,73.9-90.5
		C250.2,148.2,235.2,148.2,235.2,157.9z"/>
	<path class="st1" d="M165.4,39.2v-32c0-9.7-15-9.7-15,0v32C150.4,48.9,165.4,48.9,165.4,39.2z"/>
	<line class="st2" x1="98.5" y1="55.1" x2="82.6" y2="27.4"/>
	<path class="st1" d="M105,51.3L89,23.7c-4.8-8.4-17.8-0.8-13,7.6l16,27.7C96.9,67.3,109.8,59.7,105,51.3L105,51.3z"/>
	<line class="st2" x1="55.1" y1="98.5" x2="27.4" y2="82.6"/>
	<path class="st1" d="M58.9,92.1l-27.7-16c-8.4-4.8-15.9,8.1-7.6,13l27.7,16C59.7,109.9,67.3,97,58.9,92.1z"/>
	<line class="st2" x1="39.2" y1="157.9" x2="7.3" y2="157.9"/>
	<path class="st1" d="M39.2,150.4h-32c-9.7,0-9.7,15,0,15h32C48.9,165.4,48.9,150.4,39.2,150.4z"/>
	<line class="st2" x1="55.1" y1="217.2" x2="27.4" y2="233.1"/>
	<path class="st1" d="M51.3,210.7l-27.7,16c-8.4,4.8-0.8,17.8,7.6,13l27.7-16C67.3,218.9,59.7,205.9,51.3,210.7L51.3,210.7z"/>
	<line class="st2" x1="98.5" y1="260.6" x2="82.6" y2="288.3"/>
	<path class="st1" d="M92.1,256.8l-16,27.7c-4.8,8.4,8.1,15.9,13,7.6l16-27.7C109.9,256,97,248.4,92.1,256.8z"/>
	<line class="st2" x1="157.9" y1="276.5" x2="157.9" y2="308.4"/>
	<path class="st1" d="M150.4,276.5v32c0,9.6,15,9.7,15,0v-32C165.4,266.8,150.4,266.8,150.4,276.5z"/>
	<line class="st2" x1="217.2" y1="260.6" x2="233.1" y2="288.3"/>
	<path class="st1" d="M210.7,264.4l16,27.7c4.8,8.4,17.8,0.8,13-7.6l-16-27.7C218.9,248.4,205.9,256,210.7,264.4z"/>
	<line class="st2" x1="260.6" y1="217.2" x2="288.3" y2="233.1"/>
	<path class="st1" d="M256.8,223.6l27.7,16c8.4,4.8,15.9-8.1,7.6-13l-27.7-16C256,205.8,248.4,218.8,256.8,223.6z"/>
	<line class="st2" x1="276.5" y1="157.9" x2="308.4" y2="157.9"/>
	<path class="st1" d="M276.5,165.4h32c9.6,0,9.7-15,0-15h-32C266.8,150.4,266.8,165.4,276.5,165.4z"/>
	<line class="st2" x1="260.6" y1="98.5" x2="288.3" y2="82.6"/>
	<path class="st1" d="M264.4,105l27.7-16c8.4-4.8,0.8-17.8-7.6-13l-27.7,16C248.4,96.9,256,109.8,264.4,105z"/>
	<line class="st2" x1="217.2" y1="55.1" x2="233.1" y2="27.4"/>
	<path class="st1" d="M223.6,58.9l16-27.7c4.8-8.4-8.1-15.9-13-7.6l-16,27.7C205.8,59.7,218.8,67.3,223.6,58.9z"/>
</g>
</svg>
