<svg id="Layer_1" data-name="Layer 1" xmlns="http://www.w3.org/2000/svg" xmlns:xlink="http://www.w3.org/1999/xlink" viewBox="0 0 394.51 508"><defs><style>.cls-1{fill:none;}.cls-2{fill:#013b7a;stroke:#fff;stroke-miterlimit:10;stroke-width:8px;}.cls-3{fill:#fff;}.cls-4{fill:#0068e9;}.cls-5{clip-path:url(#clip-path);}</style><clipPath id="clip-path" transform="translate(-302.75 -246.62)"><path class="cls-1" d="M641.6,349.13a2.18,2.18,0,0,0-3.38-1.72c-2.87,1.82-9.15,4.6-15.34,7.81-2.41.89-5,2-7.55,2.88C584,369.25,536.44,360.92,511.42,340c-15.62-14.82-8.83-15-24.55-.07-25.19,21-72.92,29.34-104.4,18-2.29-.82-4.56-1.79-6.75-2.62-6.3-3.26-11-6.09-13.94-7.93a2.18,2.18,0,0,0-3.38,1.72V452.42c.22,24.93,19.93,46.55,45.72,51.2,9.51,1.72,19.49,1.21,29.27,1.39,13.06.25,117.9.24,130.77.07,5.26-.08,10.53,0,15.79,0,35-.11,61.59-23.84,61.65-57.17V349.13Z"/></clipPath></defs><title>eventdynamiclogowhiteoutline</title><path class="cls-2" d="M693.25,284.62a3.45,3.45,0,0,0-5.37-2.89c-4.57,3-12,7.71-21.82,13.08-3.82,1.5-7.86,3.29-12,4.84-49.78,18.68-94.63,4.72-134.44-30.27-24.83-24.84-14-25.14-39.05-.12-40.07,35.24-85.11,49.17-135.2,30.15-3.63-1.38-7.25-3-10.73-4.4-10-5.45-17.56-10.2-22.19-13.28a3.45,3.45,0,0,0-5.37,2.89V319c-.07,1.72-.11,3.5-.11,5.42,0,99.63-.62,199.26.21,298.88.35,41.77,31.6,78,72.63,85.8,15.13,2.87,31,2,46.56,2.34,20.78.41,39,6.88,54.42,21,24.76,24.76,14.9,23.59,38.36.13,15.15-14,33-20.78,53.5-21.07,8.37-.12,16.75,0,25.13,0,55.65-.18,95.32-39.94,95.42-95.8q.13-70.17,0-140.35c0-49.67.11-99.34-.06-149,0-.55,0-1.06,0-1.6l.11.07Z" transform="translate(-302.75 -246.62)"/><path class="cls-3" d="M358.4,614.28h13a15.35,15.35,0,0,1,6.49,1.39,17.93,17.93,0,0,1,5.31,3.71,17.24,17.24,0,0,1,3.57,5.39,16.34,16.34,0,0,1,1.3,6.45,16.54,16.54,0,0,1-1.28,6.4,17.09,17.09,0,0,1-3.55,5.42,17.46,17.46,0,0,1-5.3,3.73,15.51,15.51,0,0,1-6.54,1.39h-13Zm8.8,26.42h2a11,11,0,0,0,4.09-.72,8.37,8.37,0,0,0,4.92-5,10.83,10.83,0,0,0,.65-3.8,10.44,10.44,0,0,0-.68-3.78,8.55,8.55,0,0,0-1.91-3,8.79,8.79,0,0,0-3-2,10.81,10.81,0,0,0-4-.72h-2Z" transform="translate(-302.75 -246.62)"/><path class="cls-3" d="M408.46,631.89,396.1,614.28h10.52l6.29,9.26,6.24-9.26h10.52l-12.4,17.61v16.27h-8.81Z" transform="translate(-302.75 -246.62)"/><path class="cls-3" d="M441.76,648.16V614.28h8.81L466.84,635V614.28h8.76v33.88h-8.76l-16.27-20.72v20.72Z" transform="translate(-302.75 -246.62)"/><path class="cls-3" d="M512.54,642.28H500l-2,5.88h-9.39l12.9-33.88h9.62L524,648.16h-9.39Zm-2.34-6.7-3.95-11.28-4,11.28Z" transform="translate(-302.75 -246.62)"/><path class="cls-3" d="M535.28,648.16,541,614.28h8.72l6.78,18.06,6.75-18.06H572l5.75,33.88H569l-2.92-19.5-8,19.5h-3.5l-7.6-19.5L544,648.16Z" transform="translate(-302.75 -246.62)"/><path class="cls-3" d="M601.11,614.28v33.88h-8.8V614.28Z" transform="translate(-302.75 -246.62)"/><path class="cls-3" d="M641.6,625.6a9.4,9.4,0,0,0-7.54-3.73,9.24,9.24,0,0,0-3.67.72,8.9,8.9,0,0,0-2.9,2,9,9,0,0,0-1.91,2.94,9.75,9.75,0,0,0-.69,3.68,9.92,9.92,0,0,0,.69,3.74,9.09,9.09,0,0,0,4.83,4.94,9,9,0,0,0,3.6.72,10.17,10.17,0,0,0,7.59-3.6V647.4l-.89.31a26.72,26.72,0,0,1-3.78,1.06,18.69,18.69,0,0,1-3.46.34,17.71,17.71,0,0,1-12.38-5.06,18.62,18.62,0,0,1-3.93-5.71,18.26,18.26,0,0,1,0-14.38,17.89,17.89,0,0,1,16.39-10.62,18.85,18.85,0,0,1,4,.42,24.41,24.41,0,0,1,4.11,1.33Z" transform="translate(-302.75 -246.62)"/><path class="cls-3" d="M388.11,549.79H372v8.72h15.24V570H372v9h16.14v11.5H358.4V538.29h29.71Z" transform="translate(-302.75 -246.62)"/><path class="cls-3" d="M421,538.29l12.6,31.79,12.68-31.79H461l-22,52.22H428.21l-22-52.22Z" transform="translate(-302.75 -246.62)"/><path class="cls-3" d="M510.08,549.79H493.94v8.72h15.24V570H493.94v9h16.14v11.5H480.36V538.29h29.72Z" transform="translate(-302.75 -246.62)"/><path class="cls-3" d="M533.69,590.51V538.29h13.58l25.07,31.93V538.29h13.51v52.22H572.34l-25.07-31.93v31.93Z" transform="translate(-302.75 -246.62)"/><path class="cls-3" d="M630.45,549.79v40.72H616.88V549.79H605.73v-11.5H641.6v11.5Z" transform="translate(-302.75 -246.62)"/><path class="cls-4" d="M641.6,349.13a2.18,2.18,0,0,0-3.38-1.72c-2.87,1.82-9.15,4.6-15.34,7.81-2.41.89-5,2-7.55,2.88C584,369.25,536.44,360.92,511.42,340c-15.62-14.82-8.83-15-24.55-.07-25.19,21-72.92,29.34-104.4,18-2.29-.82-4.56-1.79-6.75-2.62-6.3-3.26-11-6.09-13.94-7.93a2.18,2.18,0,0,0-3.38,1.72V452.42c.22,24.93,19.93,46.55,45.72,51.2,9.51,1.72,19.49,1.21,29.27,1.39,13.06.25,117.9.24,130.77.07,5.26-.08,10.53,0,15.79,0,35-.11,61.59-23.84,61.65-57.17V349.13Z" transform="translate(-302.75 -246.62)"/><g class="cls-5"><path class="cls-3" d="M401.25,439a20.51,20.51,0,1,1-20.51,20.51A20.54,20.54,0,0,1,401.25,439" transform="translate(-302.75 -246.62)"/><path class="cls-3" d="M491.49,396a14.36,14.36,0,1,1-14.36,14.36A14.38,14.38,0,0,1,491.49,396" transform="translate(-302.75 -246.62)"/><path class="cls-3" d="M565.33,422.62a16.43,16.43,0,0,1,16.4,16.88,16.6,16.6,0,0,1-15.93,15.92,16.4,16.4,0,1,1-.47-32.8" transform="translate(-302.75 -246.62)"/><rect class="cls-3" x="410.57" y="432.79" width="78.84" height="6.16" transform="translate(-461.49 41.23) rotate(-30.42)"/><rect class="cls-3" x="530.46" y="382.84" width="6.15" height="85.7" transform="translate(-358.06 524.23) rotate(-68.96)"/><polygon class="cls-3" points="96.93 222.76 22.19 205.82 23.32 199.76 98.05 216.71 96.93 222.76"/><path class="cls-3" d="M641.57,371.63A11.29,11.29,0,1,0,650,380,11.3,11.3,0,0,0,641.57,371.63Z" transform="translate(-302.75 -246.62)"/><rect class="cls-3" x="565.67" y="405.18" width="91.84" height="6.15" transform="translate(-421.54 246.85) rotate(-40.38)"/></g><polygon class="cls-3" points="197.25 428.27 201.76 437.4 211.84 438.86 204.54 445.97 206.27 456 197.25 451.26 188.24 456 189.97 445.97 182.68 438.86 192.75 437.4 197.25 428.27"/></svg>