<svg xmlns="http://www.w3.org/2000/svg" viewBox="0 0 202.59 191.38"><defs><style>.cls-1{isolation:isolate;}.cls-2{fill:#0068e9;}.cls-3{opacity:0.2;mix-blend-mode:multiply;}.cls-12,.cls-4{fill:#fff;}.cls-5{fill:none;stroke:#000;}.cls-13,.cls-14,.cls-15,.cls-5{stroke-miterlimit:10;}.cls-14,.cls-5{stroke-width:2px;}.cls-6{fill:#00c921;}.cls-13,.cls-14,.cls-7{fill:#0a396d;}.cls-8{opacity:0.35;mix-blend-mode:darken;}.cls-12,.cls-9{font-size:25.14px;font-family:Futura-Bold, Futura;font-weight:700;}.cls-10{letter-spacing:-0.05em;}.cls-11{letter-spacing:0em;}.cls-13,.cls-14,.cls-15{stroke:#fff;}.cls-13{stroke-width:3px;}.cls-15,.cls-16{fill:#013b7a;}.cls-15{stroke-width:0.5px;}</style></defs><title>event_dynamic-logo</title><g class="cls-1"><g id="Layer_1" data-name="Layer 1"><path class="cls-2" d="M172,144.69c1.28-10.15,2.38-10.18,3.32-19.91,6-61.15,6-101,6-101H181L119.61,16.2a158.78,158.78,0,0,0-39.21,0L20,23.78s0,22.41,3.12,67c1.69,24.14,2.85,27.53,6.15,53.9.83,6.61,5,12.31,11.42,14.14L100,175.78l60.27-17a15.78,15.78,0,0,0,11.47-14.15"/><g class="cls-3"><path class="cls-4" d="M186.82,75.76l-.38-.45a8,8,0,0,0-15.94,1,7.62,7.62,0,0,0,.14,1.43l-22.33,19a9.42,9.42,0,0,0-12-.47l-22.62-8.7A8,8,0,0,0,98,89.78s0,0,0,.06L70.46,106A11.47,11.47,0,0,0,51,110.55l-33-6.2-2.95-.55-.56,2.94-.55,3-.55,3,2.94.56,36,6.76a11.48,11.48,0,0,0,21.14-5.27l29.71-17.44a8,8,0,0,0,2.83.53,7.93,7.93,0,0,0,4.89-1.68l21.65,8.32a9.49,9.49,0,0,0,18.69,1.6L177,84.12a7.77,7.77,0,0,0,1.52.16,8,8,0,0,0,8-8c0-.08,0-.16,0-.24Z"/><path class="cls-5" d="M186.82,75.76l-.38-.45a8,8,0,0,0-15.94,1,7.62,7.62,0,0,0,.14,1.43l-22.33,19a9.42,9.42,0,0,0-12-.47l-22.62-8.7A8,8,0,0,0,98,89.78s0,0,0,.06L70.46,106A11.47,11.47,0,0,0,51,110.55l-33-6.2-2.95-.55-.56,2.94-.55,3-.55,3,2.94.56,36,6.76a11.48,11.48,0,0,0,21.14-5.27l29.71-17.44a8,8,0,0,0,2.83.53,7.93,7.93,0,0,0,4.89-1.68l21.65,8.32a9.49,9.49,0,0,0,18.69,1.6L177,84.12a7.77,7.77,0,0,0,1.52.16,8,8,0,0,0,8-8c0-.08,0-.16,0-.24Z"/></g><path class="cls-6" d="M179.12,75.78c2.15-36.68,2.15-52,2.15-52H181L119.61,16.2a158.78,158.78,0,0,0-39.21,0L20,23.78s.89,41.4,4,86l36,7,46-27,39,15Z"/><rect class="cls-7" x="139.67" y="85.78" width="47.78" height="6" transform="translate(-18.56 127.07) rotate(-40.37)"/><path class="cls-4" d="M179.65,73.13l1.94,2.29-34.11,29-1.95-2.29,34.12-29m.34-4.22-2.28,1.94-34.12,29-2.29,1.94,1.95,2.29,1.94,2.28,1.94,2.29,2.29-1.94,34.12-29,2.28-1.95-1.94-2.28-1.95-2.29L180,68.91Z"/><rect class="cls-7" x="122.5" y="74.88" width="6" height="44.79" transform="translate(-10.32 179.54) rotate(-68.98)"/><path class="cls-4" d="M106.54,88.38l39,15-1.07,2.8-39-15,1.07-2.8m-1.72-3.88-1.08,2.8-1.07,2.8-1.08,2.8,2.8,1.08,39,15,2.8,1.08,1.08-2.81,1.07-2.8,1.08-2.8-2.8-1.07-39-15-2.8-1.08Z"/><rect class="cls-7" x="54.84" y="100.28" width="56.34" height="6" transform="translate(-40.86 56.23) rotate(-30.41)"/><path class="cls-4" d="M105.24,88.48l1.52,2.59-46,27-1.52-2.59,46-27m1.07-4.1-2.58,1.52-46,27-2.59,1.52L56.66,117l1.52,2.59,1.52,2.59,2.58-1.52,46-27,2.59-1.52-1.52-2.59L107.83,87l-1.52-2.58Z"/><rect class="cls-7" x="35.34" y="88.88" width="6" height="48.12" transform="translate(-79.74 129.77) rotate(-79.36)"/><path class="cls-4" d="M16.44,107.3l44.35,8.33-.56,3-44.34-8.33.55-3m-2.39-3.5-.56,2.94-.55,3-.55,3,2.94.56,44.35,8.33,3,.55.55-3,.56-2.95.55-3-3-.55L17,104.35l-2.95-.55Z"/><g class="cls-8"><text class="cls-9" transform="translate(36.65 152.4)"><tspan class="cls-10">D</tspan><tspan x="18.4" y="0">Y</tspan><tspan class="cls-11" x="36.57" y="0">N</tspan><tspan x="59.52" y="0">AMIC</tspan></text></g><text class="cls-12" transform="translate(34.65 150.4)"><tspan class="cls-10">D</tspan><tspan x="18.4" y="0">Y</tspan><tspan class="cls-11" x="36.57" y="0">N</tspan><tspan x="59.52" y="0">AMIC</tspan></text><path class="cls-4" d="M100,166.78h0l-7.23-2.41a.82.82,0,0,1,.26-1.59h14.55a.81.81,0,0,1,.24,1.59Z"/><path class="cls-13" d="M61,103.78a10,10,0,1,1-10,10,10,10,0,0,1,10-10"/><path class="cls-14" d="M105,82.78a7,7,0,1,1-7,7,7,7,0,0,1,7-7"/><path class="cls-13" d="M141,95.78a8,8,0,1,1-8,8,8,8,0,0,1,8-8"/><path class="cls-14" d="M178.5,69.78a6.5,6.5,0,1,1-6.5,6.5,6.5,6.5,0,0,1,6.5-6.5"/><g class="cls-8"><path d="M49.86,44.44h-12v6h11.4v7.85H37.84v6.14h12v7.85H29.57l-1-35.65H49.86Z"/><path d="M62.86,36.59l8.61,21.7,8.65-21.7H90.19l-15,35.65H67.78l-15-35.65Z"/><path d="M113.27,44.44h-11v6h10.4v7.85h-10.4v6.14h11v7.85H93V36.59h20.29Z"/><path d="M116.15,72.24V36.59h9.27l17.12,21.8V36.59h9.22V72.24h-9.22l-17.12-21.8v21.8Z"/><path d="M170.86,44.44v27.8H161.6V44.44H154V36.59h25.5l-1,7.85Z"/></g><path class="cls-4" d="M47.86,42.44h-12v6h11.4v7.85H35.84v6.14h12v7.85H27.57l-1-35.65H47.86Z"/><path class="cls-4" d="M60.86,34.59l8.61,21.7,8.65-21.7H88.19l-15,35.65H65.78l-15-35.65Z"/><path class="cls-4" d="M111.27,42.44h-11v6h10.4v7.85h-10.4v6.14h11v7.85H91V34.59h20.29Z"/><path class="cls-4" d="M114.15,70.24V34.59h9.27l17.12,21.8V34.59h9.22V70.24h-9.22l-17.12-21.8v21.8Z"/><path class="cls-4" d="M168.86,42.44v27.8H159.6V42.44H152V34.59h25.5l-1,7.85Z"/><rect class="cls-7" x="65.55" y="100.74" width="38.44" height="3" transform="translate(-40.1 57) rotate(-30.42)"/><rect class="cls-7" x="124" y="76.38" width="3" height="41.79" transform="translate(-10.34 179.5) rotate(-68.96)"/><path class="cls-4" d="M106.63,85.78A4,4,0,0,1,104.22,93,4,4,0,0,1,101,91.41a4.47,4.47,0,1,0,5.63-5.63Z"/><path class="cls-15" d="M196,8.53l-13.12.36L122.47,1.34a174.45,174.45,0,0,0-42.92,0L64.68,3.15V3.2L19.14,8.89,6,8.53s0,2,0,2V23.78c0,.93,0,23.44,3.16,68.05,1.05,15.08,2.47,25.88,4.27,39.56.62,4.7,1.26,9.55,2,15.17,1.61,12.82,10.32,23.3,22.18,26.69L96.88,190.2l4.12,1.18h0l4.11-1.18,59.32-16.95c11.86-3.39,20.57-13.87,22.18-26.69.7-5.62,1.34-10.47,2-15.17,1.79-13.68,3.21-24.48,4.27-39.56C196,47.22,196,24.71,196,23.78V10.56S196,8.53,196,8.53ZM177.89,90.79c-1.38,19.73-3.37,31.64-6.24,54.6a16.16,16.16,0,0,1-11.57,13.51L101,175.78h0L41.93,158.9a16.13,16.13,0,0,1-11.57-13.51c-2.87-23-4.86-34.87-6.24-54.6C21.06,47,21,24.57,21,23.8c0,0,0,0,0,0L81.4,16.23v0a158.87,158.87,0,0,1,39.22,0L181,23.77s0,0,0,0C181,24.57,181,47,177.89,90.79Z"/><path class="cls-4" d="M100.88,15a158.84,158.84,0,0,1,19.73,1.23L181,23.78s0,22.41-3.11,67c-1.37,19.53-3.33,31.39-6.16,53.9-.83,6.61-5,12.31-11.41,14.14L101,175.78,41.69,158.83C35.28,157,31.1,151.3,30.27,144.69c-2.82-22.51-4.78-34.37-6.15-53.9C21,46.19,21,23.78,21,23.78l60.4-7.55v0A159,159,0,0,1,100.88,15m0-4v0h0a162.87,162.87,0,0,0-20,1.23l-4,.49v0l-56.4,7L17,20.25v3.53c0,.22,0,23.06,3.13,67.29,1,14.73,2.43,25.39,4.21,38.89.62,4.71,1.26,9.58,2,15.23,1.07,8.57,6.54,15.28,14.28,17.49L99.9,179.62l1.1.32,1.1-.32,59.32-16.94c7.73-2.21,13.21-8.92,14.28-17.49.71-5.65,1.35-10.52,2-15.22,1.77-13.5,3.17-24.16,4.21-38.9C185,46.84,185,24,185,23.78V20.25l-3.5-.44-60.39-7.55A162.9,162.9,0,0,0,100.88,11Z"/><path class="cls-4" d="M142.81,99.51a4.15,4.15,0,1,1-5.81,5.8,4.61,4.61,0,1,0,5.81-5.8Z"/><rect class="cls-7" x="36.83" y="90.41" width="3" height="45.12" transform="translate(-79.75 129.98) rotate(-79.45)"/><path class="cls-4" d="M63.21,107.78A5.86,5.86,0,1,1,55,116a6.53,6.53,0,1,0,8.21-8.21Z"/><path class="cls-16" d="M178.5,70.78a5.5,5.5,0,1,0,5.5,5.5A5.51,5.51,0,0,0,178.5,70.78Z"/><rect class="cls-7" x="141.17" y="87.28" width="44.78" height="3" transform="translate(-18.55 127.11) rotate(-40.38)"/><path class="cls-4" d="M180,72.78a3.56,3.56,0,1,1-5,5,4,4,0,1,0,5-5Z"/><path class="cls-6" d="M28.57,82.09C26.82,49.52,26.28,24,26.28,24H24.55V73.13"/></g></g></svg>