<?xml version="1.0" encoding="UTF-8"?>
<svg width="47px" height="48px" viewBox="0 0 47 48" version="1.1" xmlns="http://www.w3.org/2000/svg" xmlns:xlink="http://www.w3.org/1999/xlink">
    <!-- Generator: Sketch 51.2 (57519) - http://www.bohemiancoding.com/sketch -->
    <title>Page 1 Copy</title>
    <desc>Created with Sketch.</desc>
    <defs>
        <polygon id="path-1" points="0 0.214214876 46.8432017 0.214214876 46.8432017 47.6031868 0 47.6031868"></polygon>
    </defs>
    <g id="Symbols" stroke="none" stroke-width="1" fill="none" fill-rule="evenodd">
        <g id="Page-1-Copy">
            <g id="Group-29" transform="translate(2.000000, 4.000000)">
                <path d="M38.8977609,31.9914059 C39.2073609,29.4876436 39.4747427,29.482099 39.7053791,27.081703 C41.1536973,12.0056634 41.1536973,2.17833663 41.1536973,2.17833663 L41.0880245,2.17833663 L26.1470882,0.309425743 C22.9775973,-0.087009901 19.7717518,-0.0846336634 16.6030427,0.316554455 L1.90447,2.17833663 C1.90447,2.17833663 1.90447,7.70308911 2.66361545,18.7003168 C3.07407,24.6535842 3.35552455,25.4884356 4.16079727,31.9914059 C4.36250636,33.621505 5.37887,35.0262574 6.93859727,35.4781386 L21.37487,39.6563564 L36.0406064,35.4710099 C37.60737,35.0238812 38.7261518,33.6254653 38.8320882,31.9807129 L38.8977609,31.9914059" id="Fill-1" fill="#0068E9"></path>
                <path d="M40.7534064,13.4193267 C40.6928155,14.4961584 40.6224518,15.6403168 40.5415336,16.8478416 C40.98717,16.8312079 41.3878518,16.641901 41.6833791,16.3428911 C41.9910245,16.0308119 42.1810064,15.6034851 42.1829609,15.1294257 L42.1747518,14.961901 L42.1692791,14.9147723 C42.0785882,14.1535842 41.4953518,13.5413069 40.7534064,13.4193267 M0.892015455,22.1959604 L0.802497273,22.6807129 L0.667633636,23.4082376 L0.578115455,23.892198 L1.05619727,23.9836832 L3.17179727,24.3860594 C3.13466091,24.0708119 3.09869727,23.7508119 3.06312455,23.4193267 L2.87783364,23.3828911 C2.85946091,23.1092277 2.84069727,22.8359604 2.82232455,22.5634851 L1.37087909,22.2874455 L0.892015455,22.1959604" id="Fill-3" fill="#FFFFFF"></path>
                <path d="M40.7190845,13.413901 C40.69133,13.9232079 40.6616209,14.4519208 40.6295664,14.9996436 L32.3262664,22.1501386 L22.8346027,18.4515248 L11.6393573,25.1089505 L3.06320273,23.4194455 C3.09877545,23.7509307 3.13473909,24.0705347 3.17187545,24.3861782 L9.91740273,25.6697426 L9.97447545,25.7600396 C10.43653,26.4946931 11.2394573,26.9580594 12.1260391,26.9580594 C13.4660755,26.9588515 14.5680482,25.9049901 14.6712482,24.574297 L14.6814118,24.4455842 L22.1215845,20.0210297 L22.2310391,20.0630099 C22.4202391,20.1362772 22.62273,20.1774653 22.8346027,20.1774653 C23.2270755,20.1774653 23.5863209,20.0416238 23.8755936,19.8146931 L23.9834845,19.7291485 L29.52423,21.8883564 L29.5351755,22.0455842 C29.6071027,23.133901 30.5026755,23.9996436 31.5944845,23.9996436 L31.5960482,23.9996436 C32.5674573,24.0000396 33.3836755,23.3148911 33.6045391,22.3984554 L33.6229118,22.3204356 L40.0412482,16.7929109 L40.1565664,16.8158812 C40.2640664,16.8376634 40.3715664,16.8491485 40.4794573,16.8491485 C40.5001755,16.8491485 40.5208936,16.8487525 40.5416118,16.8479604 C40.62253,15.6404356 40.6928936,14.4958812 40.7534845,13.4194455 C40.7425391,13.4174653 40.7304209,13.4154851 40.7190845,13.413901" id="Fill-5" fill="#0068E9"></path>
                <path d="M40.7812782,12.9250297 C40.7722873,13.088198 40.7629055,13.2529505 40.7535236,13.4192871 C41.4954691,13.5412673 42.0783145,14.1539406 42.1693964,14.9147327 L42.1744782,14.9618614 L42.1830782,15.1293861 C42.1811236,15.6034455 41.9911418,16.0307723 41.6834964,16.3428515 C41.3879691,16.6418614 40.9868964,16.8311683 40.5416509,16.847802 C40.5303145,17.0109703 40.5193691,17.1757228 40.5080327,17.3416634 C41.6854509,17.3258218 42.6404418,16.3670099 42.6689782,15.1773069 L42.8468418,15.0244356 L42.6893055,14.8359208 L42.6423964,14.7804752 C42.4942418,13.818099 41.7358782,13.0588911 40.7812782,12.9250297 M0.503569091,21.6200792 L0.324141818,22.5895842 L0.189278182,23.3167129 L0.00946,24.2862178 L0.966014545,24.468 L3.23406909,24.8996832 C3.21296,24.7293861 3.19263273,24.558297 3.17191455,24.3860198 L1.05631455,23.9836436 L0.577841818,23.8921584 L0.667750909,23.408198 L0.802614545,22.6806733 L0.892132727,22.1959208 L1.37099636,22.2874059 L2.82205091,22.5634455 C2.81110545,22.3935446 2.79976909,22.2244356 2.78882364,22.0553267 L1.46090545,21.8026535 L0.503569091,21.6200792" id="Fill-7" fill="#CCCCCC"></path>
                <path d="M40.7461745,12.920396 C40.7375745,13.0831683 40.7281927,13.2467327 40.7192018,13.4138614 C40.7305382,13.4154455 40.7422655,13.4174257 40.7536018,13.4194059 C40.7629836,13.2530693 40.7719745,13.0883168 40.7813564,12.9251485 C40.7696291,12.9235644 40.7575109,12.9219802 40.7461745,12.920396 M40.0409745,16.7928713 L33.6226382,22.320396 L33.6042655,22.3984158 C33.3837927,23.3148515 32.5675745,24.000396 31.5961655,23.999604 L31.5946018,23.999604 C30.5027927,23.999604 29.60722,23.1338614 29.5349018,22.0455446 L29.5243473,21.8887129 L23.9836018,19.7291089 L23.8757109,19.8146535 C23.5864382,20.0415842 23.2271927,20.1774257 22.83472,20.1774257 C22.6228473,20.1774257 22.4203564,20.1362376 22.2311564,20.0629703 L22.1213109,20.0209901 L14.6811382,24.4459406 L14.6713655,24.5742574 C14.5677745,25.9049505 13.4661927,26.9588119 12.1261564,26.9580198 C11.2395745,26.9580198 10.4366473,26.4946535 9.97420182,25.76 L9.91752,25.669703 L3.17199273,24.3861386 C3.19271091,24.5584158 3.21303818,24.7291089 3.23414727,24.899802 L9.62316545,26.1156436 C10.1806018,26.9374257 11.1078382,27.4510891 12.1261564,27.4510891 C13.6796291,27.4506931 14.9606382,26.2669307 15.1435836,24.7429703 L22.1701745,20.5643564 C22.3793109,20.6324752 22.60252,20.670495 22.83472,20.670495 C23.2889564,20.670495 23.7111382,20.5279208 24.0606109,20.2879208 L29.0642473,22.2372277 C29.2268655,23.5077228 30.2979564,24.4918812 31.5961655,24.4926733 C32.7700655,24.4918812 33.7578927,23.6875248 34.0569382,22.5936634 L40.18092,17.32 C40.2786473,17.3342574 40.3783291,17.3417822 40.4791836,17.3417822 L40.5081109,17.3417822 C40.5194473,17.1758416 40.5303927,17.0110891 40.5417291,16.8479208 C40.5210109,16.8487129 40.5002927,16.8491089 40.4791836,16.8491089 C40.3716836,16.8491089 40.2641836,16.8376238 40.1562927,16.8158416 L40.0409745,16.7928713" id="Fill-9" fill="#0053BA"></path>
                <path d="M40.6297227,14.999604 C41.1539318,5.95564356 41.1539318,2.17821782 41.1539318,2.17821782 L41.0878682,2.17821782 L26.1469318,0.309306931 C22.9778318,-0.0871287129 19.7719864,-0.0847524752 16.6028864,0.316831683 L1.90470455,2.17821782 C1.90470455,2.17821782 2.11892273,12.3853465 2.87806818,23.3829703 L11.6395136,25.1089109 L22.8347591,18.4514851 L32.3264227,22.150099 L40.6297227,14.999604" id="Fill-11" fill="#00C921"></path>
                <polygon id="Fill-13" fill="#0A396D" points="31.9407909 21.4565149 40.7999636 13.8264158 41.7459636 14.9535446 32.8864 22.5832475"></polygon>
                <path d="M40.8415955,13.3056238 L40.2853318,13.7844356 L31.9824227,20.9353267 L31.4257682,21.4145347 L31.8987682,21.977703 L32.3717682,22.5408713 L32.8447682,23.1044356 L33.4010318,22.6256238 L41.7039409,15.4755248 L42.2605955,14.9963168 L41.7872045,14.4323564 L41.3142045,13.8687921 L40.8415955,13.3056238 Z M40.7583318,14.348 L41.2313318,14.9115644 L32.9280318,22.0620594 L32.4550318,21.498495 L40.7583318,14.348 Z" id="Fill-15" fill="#FFFFFF"></path>
                <polygon id="Fill-17" fill="#0A396D" points="22.2321727 19.0091089 22.7559909 17.6285149 32.9294 21.5920792 32.4051909 22.9734653"></polygon>
                <path d="M22.5463855,17.1503762 L22.2840855,17.8410693 L22.0221764,18.5313663 L21.7602673,19.2216634 L22.4416218,19.4874059 L31.9336764,23.1860198 L32.6150309,23.4513663 L32.8773309,22.7606733 L33.13924,22.0703762 L33.4007582,21.3800792 L32.7194036,21.1147327 L23.22774,17.4161188 L22.5463855,17.1503762 Z M22.96544,18.1064158 L32.4574945,21.8050297 L32.1955855,22.4953267 L22.7035309,18.7967129 L22.96544,18.1064158 Z" id="Fill-19" fill="#FFFFFF"></path>
                <polygon id="Fill-21" fill="#0A396D" points="10.9553836 24.658099 22.7799927 17.6264158 23.5195927 18.9024554 11.6945927 25.9341386"></polygon>
                <path d="M22.9097745,17.120198 L22.2804109,17.4944554 L11.0847745,24.1522772 L10.4554109,24.5265347 L10.82482,25.1645545 L11.19462,25.8025743 L11.56442,26.4405941 L12.1937836,26.0663366 L23.38942,19.4085149 L24.0191745,19.0338614 L23.6493745,18.3962376 L23.2791836,17.7578218 L22.9097745,17.120198 Z M22.64982,18.1328713 L23.01962,18.770495 L11.8243745,25.4283168 L11.4545745,24.789901 L22.64982,18.1328713 Z" id="Fill-23" fill="#FFFFFF"></path>
                <polygon id="Fill-25" fill="#0A396D" points="0.476791818 23.794099 0.746128182 22.3402376 12.2564464 24.5303366 11.9867191 25.984198"></polygon>
                <path d="M0.454666364,21.9082772 L0.319802727,22.6354059 L0.18533,23.3625347 L0.0508572727,24.0896634 L0.768175455,24.226297 L11.5603936,26.2797624 L12.2781027,26.416396 L12.4129664,25.6892673 L12.54783,24.9621386 L12.6823027,24.2350099 L11.9645936,24.0983762 L1.17237545,22.0449109 L0.454666364,21.9082772 Z M1.03751182,22.7720396 L11.8301209,24.825505 L11.6952573,25.5526337 L0.902648182,23.4991683 L1.03751182,22.7720396 Z" id="Fill-27" fill="#FFFFFF"></path>
            </g>
            <g id="Group-98">
                <path d="M13.5859227,25.9067504 C14.9418134,25.9067504 16.0449311,27.0147174 16.0449311,28.3765686 C16.0449311,29.7384198 14.9418134,30.8459901 13.5859227,30.8459901 C12.229637,30.8459901 11.1265193,29.7384198 11.1265193,28.3765686 C11.1265193,27.0147174 12.229637,25.9067504 13.5859227,25.9067504" id="Fill-35" fill="#0A396D"></path>
                <path d="M13.5859227,26.2771041 C14.1625613,26.2775008 14.682721,26.5119471 15.0626706,26.8931702 C15.4418303,27.2743934 15.6756454,27.7972364 15.6760403,28.3764099 C15.6756454,28.9559802 15.4418303,29.4784264 15.0626706,29.8600463 C14.682721,30.2408727 14.1625613,30.4757157 13.5859227,30.4757157 C13.0088891,30.4757157 12.4887294,30.2408727 12.1087798,29.8600463 C11.7292252,29.4784264 11.495805,28.9559802 11.4954101,28.3764099 C11.495805,27.7972364 11.7292252,27.2743934 12.1087798,26.8931702 C12.4887294,26.5119471 13.0088891,26.2775008 13.5859227,26.2771041 L13.5859227,25.536476 C12.0254437,25.5368727 10.7584185,26.8094678 10.7580235,28.3764099 C10.7584185,29.9437488 12.0254437,31.2159471 13.5859227,31.2167405 C15.1460067,31.2159471 16.412637,29.9437488 16.4134269,28.3764099 C16.412637,26.8094678 15.1460067,25.5368727 13.5859227,25.536476 L13.5859227,26.2771041 Z" id="Fill-37" fill="#FFFFFF"></path>
                <path d="M24.4052437,20.7202909 C25.3543277,20.7202909 26.1264706,21.4958281 26.1264706,22.4486876 C26.1264706,23.4027372 25.3543277,24.1778777 24.4052437,24.1778777 C23.4561597,24.1778777 22.6840168,23.4027372 22.6840168,22.4486876 C22.6840168,21.4958281 23.4561597,20.7202909 24.4052437,20.7202909" id="Fill-39" fill="#0A396D"></path>
                <path d="M24.4052437,20.9670744 C24.8120504,20.9674711 25.1797563,21.1328926 25.4479328,21.4018512 C25.7153193,21.6708099 25.8804118,22.0401322 25.8804118,22.4487273 C25.8804118,22.8581157 25.7153193,23.2270413 25.4479328,23.4963967 C25.1797563,23.7653554 24.8120504,23.9307769 24.4052437,23.9311736 C23.998042,23.9307769 23.6303361,23.7653554 23.3625546,23.4963967 C23.0947731,23.2270413 22.9300756,22.8581157 22.9296807,22.4487273 C22.9300756,22.0401322 23.0947731,21.6708099 23.3625546,21.4018512 C23.6303361,21.1328926 23.998042,20.9674711 24.4052437,20.9670744 L24.4052437,20.4731901 C23.3198992,20.4735868 22.4387479,21.3590083 22.4383529,22.4487273 C22.4387479,23.5392397 23.3198992,24.4242645 24.4052437,24.4250579 C25.4905882,24.4246612 26.3721345,23.5392397 26.3721345,22.4487273 C26.3721345,21.3590083 25.4905882,20.4735868 24.4052437,20.4731901 L24.4052437,20.9670744 Z" id="Fill-41" fill="#FFFFFF"></path>
                <path d="M33.2574765,23.9310545 C34.3420311,23.9310545 35.2243672,24.8172694 35.2243672,25.9065917 C35.2243672,26.9963107 34.3420311,27.8825256 33.2574765,27.8825256 C32.1729218,27.8825256 31.2905857,26.9963107 31.2905857,25.9065917 C31.2905857,24.8172694 32.1729218,23.9310545 33.2574765,23.9310545" id="Fill-43" fill="#0A396D"></path>
                <path d="M33.2574765,24.3014083 C33.6986445,24.3014083 34.0959723,24.480714 34.3866613,24.7722843 C34.6773504,25.0642512 34.8554765,25.4637223 34.8558714,25.9068298 C34.8554765,26.3499372 34.6773504,26.7490116 34.3866613,27.0409785 C34.0959723,27.3329455 33.6986445,27.5118545 33.2574765,27.5122512 C32.8163084,27.5118545 32.4185857,27.3329455 32.1278966,27.0409785 C31.8376025,26.7490116 31.6590815,26.3499372 31.6590815,25.9068298 C31.6590815,25.4637223 31.8376025,25.0642512 32.1278966,24.7722843 C32.4185857,24.480714 32.8163084,24.3014083 33.2574765,24.3014083 L33.2574765,23.5603835 C31.9683336,23.5611769 30.9220899,24.6120198 30.9213,25.9068298 C30.9220899,27.2016397 31.9683336,28.2524826 33.2574765,28.2528793 C34.5466193,28.2524826 35.592863,27.2016397 35.593258,25.9068298 C35.592863,24.6120198 34.5466193,23.5611769 33.2574765,23.5603835 L33.2574765,24.3014083 Z" id="Fill-45" fill="#FFFFFF"></path>
                <path d="M42.478442,17.5095669 C43.3595933,17.5095669 44.076837,18.2295669 44.076837,19.1149884 C44.076837,20.0000132 43.3595933,20.7204099 42.478442,20.7204099 C41.5972908,20.7204099 40.8800471,20.0000132 40.8800471,19.1149884 C40.8800471,18.2295669 41.5972908,17.5095669 42.478442,17.5095669" id="Fill-47" fill="#0A396D"></path>
                <path d="M42.478442,17.7563107 C42.8516773,17.7567074 43.1885765,17.9082446 43.4342403,18.1549884 C43.6795092,18.4017322 43.8307782,18.7397157 43.8311731,19.1149884 C43.8307782,19.4894678 43.6795092,19.8278479 43.4342403,20.0749884 C43.1885765,20.3213355 42.8516773,20.4732694 42.478442,20.4732694 C42.1052067,20.4732694 41.7683076,20.3213355 41.5226437,20.0749884 C41.2773748,19.8278479 41.1261059,19.4894678 41.1261059,19.1149884 C41.1261059,18.7397157 41.2773748,18.4017322 41.5226437,18.1549884 C41.7683076,17.9082446 42.1052067,17.7567074 42.478442,17.7563107 L42.478442,17.2624264 C41.4610303,17.2632198 40.6347782,18.0931041 40.6343832,19.1149884 C40.6347782,20.1368727 41.4610303,20.966757 42.478442,20.9671537 C43.4962487,20.966757 44.3225008,20.1368727 44.3225008,19.1149884 C44.3225008,18.0931041 43.4962487,17.2632198 42.478442,17.2624264 L42.478442,17.7563107 Z" id="Fill-49" fill="#FFFFFF"></path>
                <polygon id="Fill-71" fill="#0A396D" points="15.5398983 28.248595 15.1662681 27.6095207 23.3189908 22.8047603 23.693016 23.4442314"></polygon>
                <polygon id="Fill-73" fill="#0A396D" points="34.1087294 26.4994909 24.5187546 22.7947636 24.7833765 22.1033256 34.3733513 25.8080529"></polygon>
                <path d="M24.806363,21.4609983 C25.0457076,21.643081 25.2021109,21.9306843 25.2021109,22.2547835 C25.2021109,22.8030149 24.7577832,23.2492959 24.2115563,23.2492959 C23.8888756,23.2492959 23.6025311,23.0926017 23.4216403,22.8518083 C23.5646151,23.2957091 23.979321,23.6178248 24.4686739,23.6178248 C25.0749345,23.6178248 25.5686319,23.121957 25.5686319,22.512238 C25.5686319,22.0215273 25.2479261,21.6046017 24.806363,21.4609983" id="Fill-75" fill="#FFFFFF"></path>
                <path d="M42.3264622,22.6983273 C41.9871933,27.5709223 41.4978403,30.5124099 40.7920504,36.1835504 C40.5949664,37.7679471 39.4760504,39.0817983 37.947563,39.5205421 L23.4237731,43.6886083 L23.4198235,43.6886083 L8.89563866,39.5205421 C7.3667563,39.0817983 6.24823529,37.7679471 6.05115126,36.1835504 C5.34536134,30.5124099 4.8560084,27.5709223 4.51713445,22.6983273 C3.76315966,11.8749223 3.75012605,6.34302149 3.74973109,6.15379835 L3.75605042,6.14784793 L18.6009412,4.28417851 L18.5997563,4.27664132 C20.1906471,4.0790876 21.7918067,3.98070744 23.3917815,3.98070744 C25.0118992,3.98070744 26.6316218,4.08186446 28.2426555,4.28417851 L43.0875462,6.14784793 L43.0930756,6.15379835 C43.0926807,6.34302149 43.080042,11.8749223 42.3264622,22.6983273 Z M46.7756639,2.38361653 L43.5508319,2.47287273 L28.7000168,0.607616529 C26.9456134,0.387847934 25.1596134,0.27637686 23.3921765,0.27637686 C21.638958,0.27637686 19.8873193,0.384277686 18.1471345,0.600079339 L14.4902185,1.05350083 L14.4917983,1.06659174 L3.29236975,2.47287273 L0.0675378151,2.38361653 L0.0612184874,2.88424463 L0.0612184874,6.14824463 C0.0612184874,6.37991405 0.070302521,11.9387901 0.837310924,22.9565752 C1.09640336,26.6795504 1.44594118,29.3485091 1.88789916,32.7275504 C2.03956303,33.8866909 2.1967563,35.0855008 2.3697479,36.4719471 C2.7654958,39.6403438 4.90577311,42.2283769 7.82332773,43.0657983 L22.4079412,47.251319 L23.4198235,47.5416992 L23.4237731,47.5416992 L24.4348655,47.251319 L39.0202689,43.0657983 C41.9374286,42.2283769 44.0781008,39.6403438 44.4738487,36.4723438 C44.6468403,35.0855008 44.8032437,33.8866909 44.9553025,32.7275504 C45.3972605,29.3485091 45.7467983,26.6795504 46.0054958,22.9565752 C46.7728992,11.9387901 46.7815882,6.37991405 46.7815882,6.14824463 L46.7815882,2.88424463 L46.7756639,2.38361653 Z" id="Fill-77" fill="#013B7A"></path>
                <g id="Group-81">
                    <mask id="mask-2" fill="white">
                        <use xlink:href="#path-1"></use>
                    </mask>
                    <g id="Clip-80"></g>
                    <path d="M42.3264622,22.6983273 L42.2652437,22.6939636 C41.9259748,27.5641785 41.4370168,30.5036826 40.7312269,36.1764099 C40.5369076,37.7358149 39.4357647,39.0294347 37.9305798,39.4614347 L23.4067899,43.6295008 L23.4237731,43.6886083 L23.4237731,43.626724 L23.4198235,43.626724 L23.4198235,43.6886083 L23.4364118,43.6295008 L8.91222689,39.4614347 C7.40783193,39.0294347 6.30629412,37.7358149 6.11236975,36.1764099 C5.40578992,30.5036826 4.91683193,27.5641785 4.57835294,22.6939636 C3.82477311,11.8717488 3.81134454,6.3418314 3.81094958,6.15340165 L3.74973109,6.15379835 L3.79278151,6.1978314 L3.79831092,6.19267438 L3.75605042,6.14784793 L3.76355462,6.20933554 L18.6692689,4.33773223 L18.6605798,4.26870744 L18.5997563,4.27664132 L18.6068655,4.33812893 C20.1957815,4.1409719 21.7941765,4.04259174 23.3917815,4.04259174 C25.0091345,4.04259174 26.6264874,4.14335207 28.2347563,4.34526942 L43.0796471,6.20933554 L43.0875462,6.14784793 L43.0444958,6.19267438 L43.0508151,6.1978314 L43.0930756,6.15379835 L43.0318571,6.15340165 C43.0314622,6.3418314 43.0184286,11.8717488 42.2652437,22.6939636 L42.3264622,22.6983273 L42.3876807,22.7026909 C43.1412605,11.8776992 43.1546891,6.34460826 43.1546891,6.15379835 L43.1546891,6.12761653 L43.1298067,6.10341818 L43.1147983,6.08913719 L28.2497647,4.2230876 C26.6367563,4.02037686 25.0146639,3.91882314 23.3917815,3.91882314 C21.789042,3.91882314 20.1855126,4.0176 18.5922521,4.21515372 L18.5306387,4.2230876 L18.5318235,4.23062479 L3.72761345,6.08913719 L3.70747059,6.1093686 L3.68851261,6.12761653 L3.68851261,6.15379835 C3.68890756,6.34460826 3.70194118,11.8776992 4.45552101,22.7026909 C4.79478992,27.5784595 5.28453782,30.5215339 5.98993277,36.1914843 C6.19017647,37.8000793 7.32647059,39.1345587 8.87865546,39.5800463 L23.4107395,43.7500959 L23.4237731,43.7500959 L23.4316723,43.7500959 L37.9641513,39.5800463 C39.5167311,39.1345587 40.6530252,37.8000793 40.8536639,36.1914843 C41.5586639,30.5215339 42.0484118,27.5784595 42.3876807,22.7026909 L42.3264622,22.6983273 Z M46.7756639,2.38361653 L46.774084,2.32212893 L43.5535966,2.41059174 L28.707916,0.54652562 C26.9503529,0.326360331 25.1623782,0.214095868 23.3921765,0.214095868 C21.6361933,0.214095868 19.8821849,0.322790083 18.1396303,0.53898843 L14.4226807,0.999550413 L14.4242605,1.01264132 L3.28921008,2.41059174 L0.00671428571,2.32014545 L0,2.88345124 L0,6.14824463 C0,6.38110413 0.00868907563,11.9415669 0.776092437,22.9609388 C1.03518487,26.6858975 1.38472269,29.356443 1.82707563,32.7354843 C1.9787395,33.8950215 2.13553782,35.093038 2.30892437,36.4794843 C2.70704202,39.671286 4.86390756,42.2807405 7.80634454,43.1249058 L22.3913529,47.3104264 L23.4107395,47.6031868 L23.4237731,47.6031868 L23.4316723,47.6031868 L24.4518487,47.3104264 L39.0372521,43.1249058 C41.9788992,42.2807405 44.1357647,39.671286 44.5346723,36.479881 C44.7072689,35.093038 44.8644622,33.8950215 45.0161261,32.7354843 C45.458479,29.356443 45.8076218,26.6858975 46.0671092,22.9609388 C46.8341176,11.9415669 46.8432017,6.38110413 46.8432017,6.14824463 L46.8432017,2.88424463 L46.8360924,2.32014545 L46.774084,2.32212893 L46.7756639,2.38361653 L46.7140504,2.38440992 L46.7203697,2.88503802 L46.7815882,2.88424463 L46.7203697,2.88424463 L46.7203697,6.14824463 C46.7199748,6.37832727 46.7116807,11.9356165 45.9442773,22.9526083 C45.6855798,26.6736 45.336437,29.3401785 44.894479,32.7196165 C44.7424202,33.878757 44.5856218,35.0775669 44.4122353,36.4644099 C44.0196471,39.6097983 41.8951681,42.1768066 39.0036807,43.0058975 L24.4178824,47.1918149 L23.4067899,47.482195 L23.4237731,47.5416992 L23.4237731,47.4798149 L23.4198235,47.4798149 L23.4198235,47.5416992 L23.4364118,47.482195 L22.4249244,47.1918149 L7.83991597,43.0058975 C4.94763866,42.1768066 2.82315966,39.6097983 2.43057143,36.4640132 C2.25757983,35.0775669 2.10038655,33.878757 1.94911765,32.7196165 C1.50636975,29.3401785 1.15762185,26.6736 0.898529412,22.9526083 C0.131521008,11.9356165 0.122831933,6.37832727 0.122831933,6.14824463 L0.122831933,2.88424463 L0.0612184874,2.88424463 L0.122831933,2.88503802 L0.127966387,2.4470876 L3.29552941,2.53436033 L14.5593361,1.12014545 L14.5581513,1.10705455 L18.1546387,0.661170248 C19.8920588,0.445765289 21.6413277,0.337864463 23.3921765,0.337864463 C25.1568487,0.337864463 26.940479,0.449335537 28.6925126,0.669500826 L43.5476723,2.53436033 L46.7776387,2.44510413 L46.7756639,2.38361653 L46.7140504,2.38440992 L46.7756639,2.38361653 Z" id="Fill-79" fill="#FFFFFF" mask="url(#mask-2)"></path>
                </g>
                <path d="M23.3923739,2.99301818 L23.3923739,3.98078678 L23.391979,2.99301818 C21.7552731,2.99301818 20.1027689,3.09536529 18.4794916,3.29648926 L17.5031555,3.4170843 L17.5039454,3.42620826 L3.62788655,5.16809256 L2.76608824,5.27639008 L2.76608824,6.14832397 C2.76608824,6.20425785 2.77517227,11.8440595 3.53586134,22.7674314 C3.78902941,26.4074975 4.13343277,29.040357 4.56986134,32.3733818 C4.72231513,33.5364893 4.8795084,34.7392661 5.05328992,36.134043 C5.31791176,38.2523901 6.66392857,39.907795 8.56604622,40.4536463 L23.1514496,44.6387702 L23.4216008,44.7165223 L23.6921471,44.6387702 L38.2771555,40.4536463 C40.1796681,39.907795 41.5252899,38.2523901 41.7895168,36.1336463 C41.9636933,34.7396628 42.1212815,33.5372826 42.2737353,32.3745719 C42.7093739,29.0411504 43.0541723,26.4078942 43.3077353,22.7674314 C44.0684244,11.8440595 44.0767185,6.20425785 44.0767185,6.14832397 L44.0767185,5.27639008 L43.2149202,5.16809256 L28.364895,3.30402645 C26.7214748,3.09774545 25.0480378,2.99301818 23.3923739,2.99301818 M23.391979,3.98078678 C25.0120966,3.98078678 26.6318193,4.0819438 28.242458,4.28425785 L43.0932731,6.14832397 C43.0932731,6.14832397 43.0932731,11.682605 42.3262647,22.6984066 C41.9909454,27.5214149 41.5079118,30.4521917 40.8135756,36.0110678 C40.6097773,37.6446545 39.5828866,39.0509355 38.0070042,39.5035636 L23.4216008,43.6890843 L8.83619748,39.5035636 C7.26031513,39.0509355 6.23381933,37.6446545 6.02962605,36.0110678 C5.33528992,30.4521917 4.85265126,27.5214149 4.51693697,22.6984066 C3.74992857,11.682605 3.74992857,6.14832397 3.74992857,6.14832397 L18.6007437,4.28425785 L18.5995588,4.27672066 C20.1908445,4.07916694 21.7916092,3.98078678 23.391979,3.98078678" id="Fill-82" fill="#FFFFFF"></path>
                <path d="M33.7010143,24.8526545 C33.948258,25.0398942 34.1090059,25.3362248 34.1090059,25.670638 C34.1090059,26.2355306 33.6508546,26.6956959 33.0880395,26.6956959 C32.7554849,26.6956959 32.4604513,26.5338446 32.2740311,26.2859107 C32.4213504,26.7436959 32.8490899,27.0753322 33.3526613,27.0753322 C33.9778798,27.0753322 34.4869807,26.5639934 34.4869807,25.9360264 C34.4869807,25.4302413 34.1564008,25.0006215 33.7010143,24.8526545" id="Fill-84" fill="#FFFFFF"></path>
                <polygon id="Fill-86" fill="#0A396D" points="13.3973303 29.5622479 2.49017059 27.5220496 2.62524622 26.793719 13.5324059 28.8335207"></polygon>
                <path d="M14.1293849,26.894638 C14.4789227,27.1596298 14.7064185,27.5789355 14.7064185,28.051795 C14.7064185,28.8515306 14.0582924,29.5017124 13.2624521,29.5017124 C12.7916622,29.5017124 12.3745866,29.2736132 12.1103597,28.9225388 C12.3188975,29.5691504 12.9239731,30.0392331 13.6368723,30.0392331 C14.5211832,30.0392331 15.2407966,29.3160595 15.2407966,28.4274645 C15.2407966,27.7118281 14.7735613,27.1040926 14.1293849,26.894638" id="Fill-88" fill="#FFFFFF"></path>
                <path d="M42.478442,17.7563107 C41.7327613,17.7563107 41.1261059,18.3660298 41.1261059,19.1149884 C41.1261059,19.8635504 41.7327613,20.4732694 42.478442,20.4732694 C43.2241227,20.4732694 43.8311731,19.8635504 43.8311731,19.1149884 C43.8311731,18.3660298 43.2241227,17.7563107 42.478442,17.7563107" id="Fill-90" fill="#013B7A"></path>
                <polygon id="Fill-92" fill="#0A396D" points="34.8488807 26.0655868 34.3709815 25.5010909 42.760284 18.3383802 43.2381832 18.902876"></polygon>
                <path d="M42.8440941,18.2502744 C43.0561866,18.4113322 43.1944218,18.6660099 43.1944218,18.9528198 C43.1944218,19.4387702 42.8010437,19.8338777 42.3176151,19.8338777 C42.0316655,19.8338777 41.7781025,19.6954314 41.6181445,19.4816132 C41.7445311,19.8751339 42.111842,20.1595636 42.544716,20.1595636 C43.0822538,20.1595636 43.5190773,19.7208198 43.5190773,19.1817124 C43.5190773,18.7469355 43.2351025,18.3776132 42.8440941,18.2502744" id="Fill-94" fill="#FFFFFF"></path>
                <path d="M5.60962773,20.5494744 C5.18070336,12.5068959 5.04720756,6.20104463 5.04720756,6.20104463 L4.62065294,6.20104463 L4.62065294,18.3386975" id="Fill-96" fill="#00C921"></path>
            </g>
        </g>
    </g>
</svg>