<?xml version="1.0" encoding="utf-8"?>
<!-- Generator: Adobe Illustrator 24.0.3, SVG Export Plug-In . SVG Version: 6.00 Build 0)  -->
<svg version="1.1" id="Layer_1" xmlns="http://www.w3.org/2000/svg" xmlns:xlink="http://www.w3.org/1999/xlink" x="0px" y="0px"
	 viewBox="0 0 269.4 197.5" style="enable-background:new 0 0 269.4 197.5;" xml:space="preserve">
<style type="text/css">
	.st0{fill:#DCDDDD;}
	.st1{fill:#231815;}
</style>
<title></title>
<g id="图层_1">
	<path class="st0" d="M210.2,161.7c28.6,0,51.8-23.2,51.8-51.7c0-24.6-17.3-45.8-41.4-50.7c-12-38.9-53.3-60.7-92.2-48.6
		c-16.2,5-30.2,15.5-39.6,29.6C56,29.6,21,47.6,10.4,80.3s7.4,67.8,40.1,78.4c6.2,2,12.6,3,19.1,3"/>
	<path class="st1" d="M210.2,169.2c29.9-0.3,55-22.7,58.8-52.3c3.7-30-17-58.5-46.5-64.9l5.2,5.2c-9.1-28.4-33.2-50.8-62.8-56
		c-32.1-5.7-64.5,8.2-82.7,35.2l8.5-3.4c-31.4-9.7-66.4,3.8-82.3,32.8c-15.2,27.6-9.6,63.4,13.7,84.8c13,11.9,29.9,18.5,47.4,18.6
		c9.7,0.1,9.7-14.9,0-15c-24.5-0.3-46.4-16.6-52.8-40.4c-6.3-24,4.1-49.3,25.6-61.8c13.6-7.8,29.5-9.1,44.4-4.5
		c3.3,1,6.6-0.7,8.5-3.4c14.6-21.5,41.4-33.1,67.2-28.1c24,4.7,43.5,22,51,45.3c0.7,2.5,2.7,4.5,5.2,5.2c22.5,4.9,38.5,25.8,35.6,49
		c-2.7,22.1-22,38.4-44,38.7C200.5,154.3,200.5,169.3,210.2,169.2L210.2,169.2z"/>
	<path class="st1" d="M95.7,169.2H185c9.6,0,9.7-15,0-15H95.7C86.1,154.2,86.1,169.2,95.7,169.2z"/>
	<path class="st1" d="M191.9,125.9H80.5c-9.6,0-9.7,15,0,15h111.4C201.5,140.9,201.5,125.9,191.9,125.9z"/>
	<path class="st1" d="M213.6,182.5H113.5c-9.6,0-9.7,15,0,15h100.2C223.3,197.5,223.3,182.5,213.6,182.5z"/>
</g>
</svg>
