<?xml version="1.0" encoding="UTF-8"?>
<svg width="172px" height="31px" viewBox="0 0 172 31" version="1.1" xmlns="http://www.w3.org/2000/svg" xmlns:xlink="http://www.w3.org/1999/xlink">
    <!-- Generator: Sketch 55.2 (78181) - https://sketchapp.com -->
    <title>Group 29</title>
    <desc>Created with Sketch.</desc>
    <defs>
        <polygon id="path-1" points="0 0.9108 14.0498351 0.9108 14.0498351 15.2518 0 15.2518"></polygon>
        <polygon id="path-3" points="0.6247 0.961 15.8977 0.961 15.8977 25.2854 0.6247 25.2854"></polygon>
        <polygon id="path-5" points="0.7937 0.7704 16.4997 0.7704 16.4997 22 0.7937 22"></polygon>
        <polygon id="path-7" points="0 32.0392 171.074 32.0392 171.074 1.0002 0 1.0002"></polygon>
    </defs>
    <g id="Symbols" stroke="none" stroke-width="1" fill="none" fill-rule="evenodd">
        <g id="Header" transform="translate(-21.000000, -17.000000)">
            <g id="Group-29" transform="translate(21.000000, 16.000000)">
                <g id="Group-3" transform="translate(0.000000, 10.039200)">
                    <mask id="mask-2" fill="white">
                        <use xlink:href="#path-1"></use>
                    </mask>
                    <g id="Clip-2"></g>
                    <path d="M11.7135,7.0998 C11.5135,4.7378 10.0165,2.8738 7.1215,2.8738 C4.4915,2.8738 2.7295,4.5708 2.3625,7.0998 L11.7135,7.0998 Z M7.4535,13.2888 C9.5175,13.2888 10.9145,12.4568 11.8135,11.4588 L13.2435,12.8558 C11.9795,14.2868 10.1495,15.2518 7.4535,15.2518 C2.9285,15.2518 -0.0005,12.1238 -0.0005,8.0978 C-0.0005,4.0718 3.0955,0.9108 7.1215,0.9108 C11.5465,0.9108 14.2085,4.3048 14.0425,8.8638 L2.3295,8.8638 C2.6285,11.4928 4.4255,13.2888 7.4535,13.2888 L7.4535,13.2888 Z" id="Fill-1" fill="#FFFFFF" mask="url(#mask-2)"></path>
                </g>
                <path d="M13.2448,11.2488 L15.8078,11.2488 L19.4678,19.2018 C19.8998,20.1328 20.2328,21.5648 20.2328,21.5648 C20.2328,21.5648 20.5318,20.1328 20.9648,19.2018 L24.5578,11.2488 L26.9538,11.2488 L20.3658,25.2908 L19.9328,25.2908 L13.2448,11.2488 Z" id="Fill-4" fill="#FFFFFF"></path>
                <path d="M37.9352,17.139 C37.7362,14.777 36.2382,12.913 33.3432,12.913 C30.7142,12.913 28.9512,14.61 28.5842,17.139 L37.9352,17.139 Z M33.6762,23.328 C35.7402,23.328 37.1362,22.496 38.0352,21.498 L39.4662,22.895 C38.2022,24.326 36.3722,25.291 33.6762,25.291 C29.1512,25.291 26.2222,22.163 26.2222,18.137 C26.2222,14.111 29.3172,10.95 33.3432,10.95 C37.7692,10.95 40.4312,14.344 40.2642,18.903 L28.5512,18.903 C28.8512,21.532 30.6482,23.328 33.6762,23.328 L33.6762,23.328 Z" id="Fill-6" fill="#FFFFFF"></path>
                <path d="M41.5963,11.2488 L43.9263,11.2488 L43.8593,14.0778 C44.7573,12.1138 46.5873,10.9498 48.8173,10.9498 C51.8783,10.9498 53.9753,13.0458 53.9753,16.6398 L53.9753,25.0248 L51.6453,25.0248 L51.6453,16.9058 C51.6453,14.4768 50.5143,13.0798 48.2183,13.0798 C45.6563,13.0798 43.9263,14.7098 43.9263,17.4388 L43.9263,25.0248 L41.5963,25.0248 L41.5963,11.2488 Z" id="Fill-8" fill="#FFFFFF"></path>
                <path d="M56.7379,20.8655 L56.7379,13.2125 L54.6079,13.2125 L54.6079,11.2485 L56.7379,11.2485 L56.7379,4.0615 L59.0339,4.0615 L59.0339,11.2485 L62.8939,11.2485 L62.8939,13.2125 L59.0339,13.2125 L59.0339,20.8995 C59.0339,22.7285 59.6659,23.2945 60.6649,23.2945 C61.5959,23.2945 62.0949,22.8955 62.5279,22.4955 L63.7929,23.9605 C63.1929,24.5925 62.1289,25.3245 60.4309,25.3245 C58.3349,25.3245 56.7379,24.1265 56.7379,20.8655" id="Fill-10" fill="#FFFFFF"></path>
                <g id="Group-14" transform="translate(64.000000, 0.039200)">
                    <mask id="mask-4" fill="white">
                        <use xlink:href="#path-3"></use>
                    </mask>
                    <g id="Clip-13"></g>
                    <path d="M11.5397,17.8644 C11.5397,15.7684 10.2747,14.4704 8.3457,14.4704 C6.4477,14.4704 5.2497,15.7684 5.2497,17.8644 C5.2497,20.0934 6.4477,21.3594 8.3457,21.3594 C10.2747,21.3594 11.5397,20.0934 11.5397,17.8644 M0.6247,17.8644 C0.6247,13.5054 3.5537,10.5114 6.9797,10.5114 C9.2427,10.5114 10.5077,11.4094 11.4057,12.8074 L11.4057,0.9604 L15.8977,0.9604 L15.8977,24.9864 L11.4057,24.9864 L11.5067,22.9234 C10.7067,24.4204 9.2097,25.2854 7.0477,25.2854 C3.5867,25.2854 0.6247,22.2234 0.6247,17.8644" id="Fill-12" fill="#FFFFFF" mask="url(#mask-4)"></path>
                </g>
                <g id="Group-17" transform="translate(80.000000, 10.039200)">
                    <mask id="mask-6" fill="white">
                        <use xlink:href="#path-5"></use>
                    </mask>
                    <g id="Clip-16"></g>
                    <path d="M6.4167,13.6144 L0.7937,0.7704 L5.7517,0.7704 L7.7807,6.2274 C8.2807,7.5574 8.7797,9.8864 8.7797,9.8864 C8.7797,9.8864 9.2127,7.5244 9.7447,6.2274 L11.9407,0.7704 L16.4997,0.7704 L7.2157,22.0004 L2.7237,22.0004 L6.4167,13.6144 Z" id="Fill-15" fill="#FFFFFF" mask="url(#mask-6)"></path>
                </g>
                <path d="M97.4352,10.8499 L101.9272,10.8499 L101.8282,13.1799 C102.6932,11.4819 104.3572,10.5509 106.3202,10.5509 C109.4142,10.5509 111.6442,12.8129 111.6442,16.8399 L111.6442,25.0249 L107.1522,25.0249 L107.1522,17.1389 C107.1522,15.5409 106.3862,14.6429 104.7892,14.6429 C102.9932,14.6429 101.9272,15.6409 101.9272,17.4389 L101.9272,25.0249 L97.4352,25.0249 L97.4352,10.8499 Z" id="Fill-18" fill="#FFFFFF"></path>
                <path d="M118.3669,19.2689 C117.2349,19.2689 116.7369,19.7669 116.7369,20.5659 C116.7369,21.3649 117.4019,21.8309 118.6669,21.8309 C120.4969,21.8309 121.4289,21.0319 121.4289,19.8339 L121.4289,19.2689 L118.3669,19.2689 Z M119.0659,14.2439 C117.3689,14.2439 116.4709,14.9769 115.8389,15.5409 L113.3429,12.8799 C114.6739,11.5819 116.1709,10.5509 119.4989,10.5509 C123.1259,10.5509 125.8879,12.5139 125.8879,16.9729 L125.8879,25.0249 L121.4289,25.0249 L121.5279,23.0619 C120.4639,24.6919 119.2319,25.3249 117.3359,25.3249 C114.7399,25.3249 112.3449,24.1599 112.3449,20.8659 C112.3449,17.8369 114.6399,16.6059 118.1349,16.6059 L121.4289,16.6059 C121.3619,14.9769 120.5629,14.2439 119.0659,14.2439 L119.0659,14.2439 Z" id="Fill-20" fill="#FFFFFF"></path>
                <path d="M157.3649,17.9036 C157.3649,13.6116 160.6919,10.5506 165.1179,10.5506 C167.9459,10.5506 169.6429,11.5816 171.0739,13.3786 L167.8799,15.9736 C167.3469,15.1096 166.2489,14.4766 165.1179,14.4766 C163.0879,14.4766 161.9569,15.9076 161.9569,17.9036 C161.9569,19.9666 163.0879,21.4316 165.1179,21.4316 C166.5489,21.4316 167.3129,20.7656 167.9789,20.0996 L171.0079,22.7626 C169.6099,24.3256 167.9459,25.3246 165.1179,25.3246 C160.6919,25.3246 157.3649,22.2626 157.3649,17.9036" id="Fill-22" fill="#FFFFFF"></path>
                <path d="M127.319,10.8499 L131.811,10.8499 L131.711,13.0459 C132.71,11.3149 134.041,10.5509 135.737,10.5509 C137.568,10.5509 138.865,11.3149 139.73,12.9799 C140.895,11.5149 142.459,10.5509 144.555,10.5509 C148.116,10.5509 150.179,12.9129 150.179,16.8059 L150.179,25.0249 L145.72,25.0249 L145.72,17.2059 C145.72,15.5409 145.188,14.6429 143.491,14.6429 C141.76,14.6429 140.995,15.5079 140.995,17.4389 L140.995,25.0249 L136.536,25.0249 L136.536,17.2059 C136.536,15.5409 136.037,14.6429 134.34,14.6429 C132.609,14.6429 131.811,15.5079 131.811,17.4389 L131.811,25.0249 L127.319,25.0249 L127.319,10.8499 Z" id="Fill-24" fill="#FFFFFF"></path>
                <mask id="mask-8" fill="white">
                    <use xlink:href="#path-7"></use>
                </mask>
                <g id="Clip-27"></g>
                <polygon id="Fill-26" fill="#FFFFFF" mask="url(#mask-8)" points="151.512 24.8662 156.057 24.8662 156.057 10.5242 151.512 10.5242"></polygon>
                <path d="M158.6188,5.4149 L158.6188,4.1129 C158.6188,3.9979 158.5248,3.9039 158.4098,3.9039 L149.2228,3.9039 C149.1068,3.9039 149.0138,3.9979 149.0138,4.1129 L149.0138,5.4149 C149.3538,5.4149 149.6318,5.6919 149.6318,6.0329 C149.6318,6.3729 149.3538,6.6509 149.0138,6.6509 L149.0138,7.9529 C149.0138,8.0679 149.1068,8.1609 149.2228,8.1609 L158.4098,8.1609 C158.5248,8.1609 158.6188,8.0679 158.6188,7.9529 L158.6188,6.6509 C158.2778,6.6509 158.0008,6.3729 158.0008,6.0329 C158.0008,5.6919 158.2778,5.4149 158.6188,5.4149" id="Fill-28" fill="#FFFFFF" mask="url(#mask-8)"></path>
            </g>
        </g>
    </g>
</svg>