<?xml version="1.0" encoding="UTF-8"?>
<svg width="193px" height="35px" viewBox="0 0 193 35" version="1.1" xmlns="http://www.w3.org/2000/svg" xmlns:xlink="http://www.w3.org/1999/xlink">
    <!-- Generator: Sketch 55.2 (78181) - https://sketchapp.com -->
    <title>Group 28</title>
    <desc>Created with Sketch.</desc>
    <defs>
        <polygon id="path-1" points="0 0.2566 15.8181538 0.2566 15.8181538 16.4026 0 16.4026"></polygon>
        <polygon id="path-3" points="0.1712 0.8064 15.606 0.8064 15.606 17.4404 0.1712 17.4404"></polygon>
        <polygon id="path-5" points="0 34.9459 192.606 34.9459 192.606 -0.0001 0 -0.0001"></polygon>
    </defs>
    <g id="⚙-Symbols" stroke="none" stroke-width="1" fill="none" fill-rule="evenodd">
        <g id="Z/Prime/Header-Horizontal" transform="translate(-56.000000, -59.000000)">
            <g id="Group-28" transform="translate(56.000000, 59.000000)">
                <g id="Group-3" transform="translate(0.000000, 10.945900)">
                    <mask id="mask-2" fill="white">
                        <use xlink:href="#path-1"></use>
                    </mask>
                    <g id="Clip-2"></g>
                    <path d="M13.1878,7.2246 C12.9628,4.5646 11.2768,2.4666 8.0178,2.4666 C5.0578,2.4666 3.0728,4.3766 2.6608,7.2246 L13.1878,7.2246 Z M8.3918,14.1926 C10.7148,14.1926 12.2888,13.2556 13.2988,12.1326 L14.9108,13.7056 C13.4868,15.3156 11.4268,16.4026 8.3918,16.4026 C3.2968,16.4026 -0.0002,12.8806 -0.0002,8.3486 C-0.0002,3.8146 3.4848,0.2566 8.0178,0.2566 C13.0008,0.2566 15.9978,4.0776 15.8098,9.2096 L2.6228,9.2096 C2.9598,12.1696 4.9828,14.1926 8.3918,14.1926 L8.3918,14.1926 Z" id="Fill-1" fill="#0A169A" mask="url(#mask-2)"></path>
                </g>
                <path d="M14.9115,11.5386 L17.7975,11.5386 L21.9175,20.4936 C22.4045,21.5416 22.7795,23.1536 22.7795,23.1536 C22.7795,23.1536 23.1165,21.5416 23.6035,20.4936 L27.6495,11.5386 L30.3475,11.5386 L22.9295,27.3486 L22.4415,27.3486 L14.9115,11.5386 Z" id="Fill-4" fill="#0A169A"></path>
                <path d="M42.7103,18.1705 C42.4853,15.5105 40.7993,13.4125 37.5403,13.4125 C34.5803,13.4125 32.5953,15.3225 32.1833,18.1705 L42.7103,18.1705 Z M37.9153,25.1385 C40.2373,25.1385 41.8113,24.2015 42.8223,23.0785 L44.4343,24.6515 C43.0103,26.2615 40.9493,27.3485 37.9153,27.3485 C32.8193,27.3485 29.5223,23.8265 29.5223,19.2945 C29.5223,14.7605 33.0073,11.2025 37.5403,11.2025 C42.5233,11.2025 45.5203,15.0235 45.3323,20.1555 L32.1453,20.1555 C32.4823,23.1155 34.5053,25.1385 37.9153,25.1385 L37.9153,25.1385 Z" id="Fill-6" fill="#0A169A"></path>
                <path d="M46.8324,11.5386 L49.4544,11.5386 L49.3804,14.7236 C50.3914,12.5136 52.4514,11.2026 54.9614,11.2026 C58.4084,11.2026 60.7694,13.5626 60.7694,17.6086 L60.7694,27.0486 L58.1454,27.0486 L58.1454,17.9086 C58.1454,15.1726 56.8724,13.6006 54.2874,13.6006 C51.4024,13.6006 49.4544,15.4356 49.4544,18.5076 L49.4544,27.0486 L46.8324,27.0486 L46.8324,11.5386 Z" id="Fill-8" fill="#0A169A"></path>
                <path d="M63.8792,22.3663 L63.8792,13.7503 L61.4822,13.7503 L61.4822,11.5383 L63.8792,11.5383 L63.8792,3.4473 L66.4642,3.4473 L66.4642,11.5383 L70.8102,11.5383 L70.8102,13.7503 L66.4642,13.7503 L66.4642,22.4033 C66.4642,24.4643 67.1762,25.1013 68.3002,25.1013 C69.3492,25.1013 69.9102,24.6513 70.3982,24.2013 L71.8212,25.8503 C71.1472,26.5613 69.9482,27.3863 68.0372,27.3863 C65.6772,27.3863 63.8792,26.0373 63.8792,22.3663" id="Fill-10" fill="#0A169A"></path>
                <path d="M85.0472,19.0313 C85.0472,16.6713 83.6232,15.2103 81.4502,15.2103 C79.3152,15.2103 77.9662,16.6713 77.9662,19.0313 C77.9662,21.5413 79.3152,22.9663 81.4502,22.9663 C83.6232,22.9663 85.0472,21.5413 85.0472,19.0313 M72.7592,19.0313 C72.7592,14.1233 76.0562,10.7523 79.9142,10.7523 C82.4622,10.7523 83.8852,11.7633 84.8972,13.3373 L84.8972,0.0003 L89.9542,0.0003 L89.9542,27.0493 L84.8972,27.0493 L85.0102,24.7263 C84.1102,26.4113 82.4242,27.3863 79.9892,27.3863 C76.0932,27.3863 72.7592,23.9393 72.7592,19.0313" id="Fill-12" fill="#0A169A"></path>
                <path d="M97.2933,25.5049 L90.9633,11.0439 L96.5443,11.0439 L98.8293,17.1879 C99.3923,18.6859 99.9533,21.3089 99.9533,21.3089 C99.9533,21.3089 100.4403,18.6489 101.0403,17.1879 L103.5133,11.0439 L108.6463,11.0439 L98.1933,34.9459 L93.1353,34.9459 L97.2933,25.5049 Z" id="Fill-14" fill="#0A169A"></path>
                <path d="M109.6986,11.0899 L114.7576,11.0899 L114.6436,13.7129 C115.6186,11.8009 117.4916,10.7529 119.7016,10.7529 C123.1856,10.7529 125.6966,13.2999 125.6966,17.8329 L125.6966,27.0489 L120.6376,27.0489 L120.6376,18.1709 C120.6376,16.3709 119.7766,15.3609 117.9786,15.3609 C115.9556,15.3609 114.7576,16.4839 114.7576,18.5079 L114.7576,27.0489 L109.6986,27.0489 L109.6986,11.0899 Z" id="Fill-16" fill="#0A169A"></path>
                <path d="M133.265,20.5679 C131.992,20.5679 131.43,21.1299 131.43,22.0289 C131.43,22.9279 132.179,23.4519 133.602,23.4519 C135.662,23.4519 136.712,22.5529 136.712,21.2039 L136.712,20.5679 L133.265,20.5679 Z M134.052,14.9109 C132.141,14.9109 131.129,15.7349 130.418,16.3709 L127.608,13.3749 C129.107,11.9129 130.792,10.7529 134.538,10.7529 C138.622,10.7529 141.732,12.9629 141.732,17.9829 L141.732,27.0489 L136.712,27.0489 L136.824,24.8389 C135.625,26.6739 134.24,27.3859 132.104,27.3859 C129.182,27.3859 126.485,26.0739 126.485,22.3659 C126.485,18.9569 129.07,17.5709 133.003,17.5709 L136.712,17.5709 C136.637,15.7349 135.738,14.9109 134.052,14.9109 L134.052,14.9109 Z" id="Fill-18" fill="#0A169A"></path>
                <g id="Group-22" transform="translate(177.000000, 9.945900)">
                    <mask id="mask-4" fill="white">
                        <use xlink:href="#path-3"></use>
                    </mask>
                    <g id="Clip-21"></g>
                    <path d="M0.1712,9.0854 C0.1712,4.2524 3.9172,0.8064 8.9002,0.8064 C12.0842,0.8064 13.9952,1.9674 15.6062,3.9904 L12.0102,6.9124 C11.4092,5.9394 10.1732,5.2274 8.9002,5.2274 C6.6142,5.2274 5.3412,6.8374 5.3412,9.0854 C5.3412,11.4084 6.6142,13.0574 8.9002,13.0574 C10.5112,13.0574 11.3722,12.3074 12.1222,11.5584 L15.5312,14.5554 C13.9572,16.3154 12.0842,17.4404 8.9002,17.4404 C3.9172,17.4404 0.1712,13.9934 0.1712,9.0854" id="Fill-20" fill="#0A169A" mask="url(#mask-4)"></path>
                </g>
                <path d="M143.3431,11.0899 L148.4011,11.0899 L148.2881,13.5629 C149.4121,11.6129 150.9111,10.7529 152.8221,10.7529 C154.8821,10.7529 156.3431,11.6129 157.3181,13.4869 C158.6291,11.8389 160.3901,10.7529 162.7491,10.7529 C166.7581,10.7529 169.0811,13.4129 169.0811,17.7959 L169.0811,27.0489 L164.0611,27.0489 L164.0611,18.2449 C164.0611,16.3709 163.4621,15.3609 161.5511,15.3609 C159.6031,15.3609 158.7401,16.3339 158.7401,18.5079 L158.7401,27.0489 L153.7211,27.0489 L153.7211,18.2449 C153.7211,16.3709 153.1591,15.3609 151.2481,15.3609 C149.3001,15.3609 148.4011,16.3339 148.4011,18.5079 L148.4011,27.0489 L143.3431,27.0489 L143.3431,11.0899 Z" id="Fill-23" fill="#0A169A"></path>
                <mask id="mask-6" fill="white">
                    <use xlink:href="#path-5"></use>
                </mask>
                <g id="Clip-26"></g>
                <polygon id="Fill-25" fill="#0A169A" mask="url(#mask-6)" points="170.582 26.8699 175.699 26.8699 175.699 10.7229 170.582 10.7229"></polygon>
                <path d="M178.5833,4.9703 L178.5833,3.5473 C178.5833,3.3943 178.4583,3.2693 178.3063,3.2693 L168.0463,3.2693 C167.8943,3.2693 167.7693,3.3943 167.7693,3.5473 L167.7693,4.9703 C168.1523,4.9703 168.4653,5.2823 168.4653,5.6663 C168.4653,6.0493 168.1523,6.3623 167.7693,6.3623 L167.7693,7.7853 C167.7693,7.9383 167.8943,8.0623 168.0463,8.0623 L178.3063,8.0623 C178.4583,8.0623 178.5833,7.9383 178.5833,7.7853 L178.5833,6.3623 C178.1993,6.3623 177.8873,6.0493 177.8873,5.6663 C177.8873,5.2823 178.1993,4.9703 178.5833,4.9703" id="Fill-27" fill="#0A169A" mask="url(#mask-6)"></path>
            </g>
        </g>
    </g>
</svg>