<?xml version="1.0" encoding="utf-8"?>
<!-- Generator: Adobe Illustrator 24.0.3, SVG Export Plug-In . SVG Version: 6.00 Build 0)  -->
<svg version="1.1" id="Layer_1" xmlns="http://www.w3.org/2000/svg" xmlns:xlink="http://www.w3.org/1999/xlink" x="0px" y="0px"
	 viewBox="0 0 341.7 320" style="enable-background:new 0 0 341.7 320;" xml:space="preserve">
<style type="text/css">
	.st0{fill:#F8B62D;stroke:#231815;stroke-miterlimit:10;}
	.st1{fill:#231815;stroke:#231815;stroke-miterlimit:10;}
	.st2{fill:#FFFFFF;}
	.st3{fill:#231815;}
</style>
<title></title>
<g id="图层_1">
	<path class="st0" d="M157.4,182c18.7-24.1,49.2-35.8,79.2-30.5c3.5,0.6,7,1.5,10.4,2.6c-5.4-34-31.2-61.1-64.9-68.1
		c-33.3-6.8-68.3,8.9-85.8,37.9c-13.9,23.3-15.5,51.9-4.4,76.6c0.5-0.5,0.9-0.9,1.4-1.4C110.5,183,134.6,176.6,157.4,182z"/>
	<path class="st1" d="M91.9,200.4c-11.1-24.7-9.5-53.3,4.4-76.6c17.5-28.9,52.5-44.6,85.8-37.9c33.7,7,59.6,34.1,64.9,68.1
		c5.5,1.8,10.8,4.2,15.8,7.2c-2.3-38.8-27.4-72.6-63.9-86.1c-37.7-13.8-81.9-1.6-107.3,29.4c-25,30.6-29.3,74.3-10,108.8
		C84.6,208.7,88,204.3,91.9,200.4z"/>
	<path class="st1" d="M173.8,41.4V7.7c0-9.7-15-9.7-15,0v33.7C158.8,51,173.8,51.1,173.8,41.4z M166.3,7.7L166.3,7.7z"/>
	<path class="st1" d="M97.3,61.9c4.8,8.4,17.8,0.8,13-7.6L93.5,25.2c-4.8-8.4-17.8-0.8-13,7.6L97.3,61.9z M103.8,58.1L87,29
		L103.8,58.1z"/>
	<path class="st1" d="M61.9,97.3L32.8,80.5c-8.4-4.8-15.9,8.1-7.6,13l29.1,16.8C62.7,115.1,70.3,102.2,61.9,97.3z M29,87l29.2,16.9
		L29,87z"/>
	<path class="st1" d="M7.7,173.8h33.7c9.7,0,9.7-15,0-15H7.7C-1.9,158.8-1.9,173.8,7.7,173.8z M41.4,166.3L41.4,166.3z"/>
	<path class="st1" d="M32.8,252l29.1-16.8c8.4-4.8,0.8-17.8-7.6-13L25.2,239C16.8,243.9,24.4,256.9,32.8,252z M58.1,228.7L29,245.5
		L58.1,228.7z"/>
	<path class="st1" d="M291.1,173.8h33.6c9.6,0,9.7-15,0-15h-33.6C281.5,158.8,281.4,173.8,291.1,173.8z M291.1,166.3L291.1,166.3z"
		/>
	<path class="st1" d="M278.2,110.3l29.1-16.8c8.4-4.8,0.8-17.8-7.6-13l-29.1,16.8C262.2,102.2,269.8,115.1,278.2,110.3z M303.5,87
		l-29.1,16.9L303.5,87z"/>
	<path class="st1" d="M235.2,61.9L252,32.8c4.8-8.4-8.1-15.9-13-7.6l-16.8,29.1C217.4,62.7,230.3,70.3,235.2,61.9z M245.5,29
		l-16.8,29.2L245.5,29z"/>
	<path class="st1" d="M297.9,203.2c0.5,1.4,1,2.8,1.5,4.3c0.5,1.3,0.5,2.7,0.2,4.1c26.9,9.8,40.7,39.5,30.9,66.3
		c-7.4,20.4-26.9,34-48.6,34H141.2c-34.4,0-62.2-27.9-62.2-62.2c0-10.2,2.5-20.2,7.2-29.1c-1-1.4-1.9-2.9-2.9-4.4
		c-0.6-0.9-1.1-1.9-1.6-2.8c-8.6,14.4-11.9,31.4-9.2,48c3.8,22.3,18.2,41.4,38.6,51.2c11.7,5.5,23.8,6.9,36.4,6.9H271
		c9.8,0,19.5,0.3,29-2.8c24.6-8.1,41.9-31.8,41.1-57.9C340.3,232.9,322.8,210.5,297.9,203.2z"/>
	<path class="st1" d="M141.2,187.5c6.5,0,13,1,19.2,3c19-28.6,55.3-40.3,87.5-28.2c-0.2-2.8-0.5-5.5-0.9-8.3
		c-3.4-1.1-6.8-1.9-10.3-2.6c-30-5.3-60.5,6.4-79.2,30.5c1.7,0.4,3.3,0.8,5,1.3l-8.5,3.5c1.1-1.6,2.3-3.2,3.5-4.8
		c-22.9-5.3-46.9,1.1-64.1,17.1c-0.5,0.5-1,0.9-1.4,1.4c1.1,2.4,2.3,4.8,3.6,7.1C107.4,194.8,123.9,187.5,141.2,187.5z"/>
	<path class="st1" d="M162.4,183.3c-1.6-0.5-3.3-1-5-1.3c-1.2,1.5-2.4,3.1-3.5,4.8L162.4,183.3z"/>
	<path class="st1" d="M262.9,170.1c11.9,8,21.2,19.3,26.8,32.5c1.4-0.6,3-0.7,4.5-0.4c1.3,0.3,2.5,0.6,3.7,1
		c-6.7-17.5-19-32.3-35.1-42c0.1,1.6,0.2,3.3,0.2,5C263,167.6,263,168.9,262.9,170.1z"/>
	<path class="st1" d="M289.7,202.6c1,2.3,1.8,4.6,2.5,6.9c2.5,0.5,5,1.2,7.4,2.1c0.4-1.3,0.3-2.8-0.2-4.1c-0.5-1.5-1-2.9-1.5-4.3
		c-1.2-0.4-2.5-0.7-3.7-1C292.7,201.9,291.1,202,289.7,202.6z"/>
	<path class="st1" d="M263,166.3c0.1-8.3-11-9.5-14.1-3.5c4.7,1.9,9.2,4.2,13.4,7C262.8,168.7,263.1,167.5,263,166.3z"/>
	<path class="st1" d="M262.9,170.1c0.1-1.3,0.1-2.6,0.1-3.9c0,1.2-0.2,2.4-0.8,3.5L262.9,170.1z"/>
	<path class="st1" d="M86.2,220.6c2.5-4.8,5.7-9.2,9.3-13.1c-1.3-2.3-2.5-4.6-3.6-7.1c-3.9,3.9-7.3,8.3-10.2,13
		c0.5,0.9,1.1,1.9,1.6,2.8C84.3,217.7,85.2,219.2,86.2,220.6z"/>
	<path class="st1" d="M247.9,162.4l1,0.4c3.2-6,14.2-4.8,14.1,3.5c0-1.7-0.1-3.3-0.2-5c-5-3-10.3-5.4-15.8-7.2
		C247.5,156.8,247.8,159.6,247.9,162.4z"/>
	<path class="st2" d="M326,257.4c1,19.1-10.2,37.3-28.2,44.2c-8.1,3.1-16.2,3-24.7,3H157.7c-5.5,0-11,0-16.4,0
		c-30.2,0-54.7-24.4-54.8-54.6c0-7.8,1.6-15.4,4.8-22.5c1.6-3.7,3.6-7.2,6-10.4c0.8-1,1.6-2.1,2.4-3c14.4-16.7,37.6-22.7,58.7-16.2
		c3.3,1,6.6-0.7,8.5-3.5c14.6-21.5,41.4-33.1,67.1-28.1c4.7,0.9,9.4,2.4,13.8,4.3c0.9,0.4,1.7,0.8,2.6,1.2s1.9,1,2.9,1.5
		c15,8.2,26.3,21.8,31.6,38.1c0.4,2.8,2.5,5,5.3,5.4C309.6,220.9,324.9,237.1,326,257.4z"/>
	<path class="st3" d="M299.6,211.6c26.9,9.8,40.7,39.5,30.9,66.3c-7.4,20.4-26.9,34-48.6,34H141.2c-34.4,0-62.3-27.8-62.3-62.2
		s27.8-62.3,62.2-62.3c6.5,0,13,1,19.2,3c19-28.6,55.3-40.3,87.5-28.2l1,0.4c4.7,1.9,9.2,4.2,13.4,7c0.2,0.1,0.4,0.3,0.6,0.4
		c11.9,8,21.2,19.3,26.8,32.4c1,2.2,1.8,4.5,2.5,6.9C294.7,210,297.2,210.7,299.6,211.6z M297.9,301.5c18-6.9,29.2-25.1,28.2-44.2
		c-1.1-20.2-16.4-36.4-35.8-40.6c-2.8-0.4-4.9-2.7-5.3-5.4c-5.3-16.3-16.6-29.9-31.6-38.1c-1-0.5-1.9-1-2.9-1.5s-1.7-0.8-2.6-1.2
		c-4.4-1.9-9.1-3.4-13.8-4.3c-25.7-5-52.5,6.6-67.1,28.1c-1.8,2.7-5.1,4.5-8.5,3.5c-21.1-6.5-44.3-0.5-58.6,16.2c-0.9,1-1.7,2-2.4,3
		c-2.4,3.2-4.4,6.7-6,10.4c-12.4,27.6-0.1,59.9,27.5,72.3c7.1,3.2,14.7,4.8,22.5,4.8c5.5,0,11,0,16.4,0h115.4
		C281.6,304.5,289.7,304.6,297.9,301.5L297.9,301.5z"/>
</g>
</svg>
