<?xml version="1.0" encoding="utf-8"?>
<!-- Generator: Adobe Illustrator 24.0.3, SVG Export Plug-In . SVG Version: 6.00 Build 0)  -->
<svg version="1.1" id="Layer_1" xmlns="http://www.w3.org/2000/svg" xmlns:xlink="http://www.w3.org/1999/xlink" x="0px" y="0px"
	 viewBox="0 0 320.6 279.1" style="enable-background:new 0 0 320.6 279.1;" xml:space="preserve">
<style type="text/css">
	.st0{fill:#231815;}
	.st1{fill:#FFFFFF;}
	.st2{fill:#F4EC90;}
</style>
<title></title>
<g id="图层_1">
	<path class="st0" d="M143.9,5.1c-2.3,5.6-4.3,11.4-5.8,17.4c5.4-3.4,11-6.4,16.8-8.9L143.9,5.1z"/>
	<path class="st1" d="M205.9,155.4c3.1,4.9,5.6,10.1,7.4,15.6c0.4,2.8,2.5,5,5.3,5.4c5.4,1.2,10.6,3.3,15.3,6.3
		c12,7.5,19.7,20.3,20.5,34.4c0.1,2.2,0.1,4.4-0.1,6.6c-0.6,6.9-2.8,13.5-6.4,19.4c-5,8.3-12.6,14.7-21.6,18.2
		c-8.1,3.1-16.3,3-24.7,3H86.1c-5.5,0-11,0-16.5,0c-30.2,0-54.8-24.5-54.8-54.8c0-11.8,3.8-23.3,10.8-32.7
		c11.2-15.1,29-22.6,47.1-21.7c4.8,0.3,9.5,1.1,14,2.5c0.9,0.3,1.9,0.4,2.8,0.2c2.3-0.4,4.4-1.7,5.6-3.7
		c13.1-19.2,35.3-30.3,58.6-29.2c2.9,0.2,5.8,0.5,8.6,1.1C180.3,129.4,196,140,205.9,155.4z"/>
	<path class="st0" d="M319.9,173.2c-0.7,1.6-1.4,3.1-2.1,4.6l-2.4-1.2l-8.5-11l-0.6-1.5c1.7-0.6,3.4-1.3,5-2
		C318.3,159.4,322.1,168.1,319.9,173.2z"/>
	<path class="st0" d="M315.4,176.6l2.4,1.2c-11,22.7-28.3,41.8-49.8,55.1c1.1-4.7,1.6-9.6,1.4-14.4c0-1.5-0.1-2.9-0.3-4.4
		c11.5-8.7,21.2-19.4,28.9-31.6C304,180.9,309.8,179,315.4,176.6z"/>
	<path class="st0" d="M307,165.6l8.5,11c-5.6,2.4-11.4,4.3-17.4,5.8C301.5,177.1,304.5,171.4,307,165.6z"/>
	<path class="st0" d="M283.7,72.6c-2.7-0.9-4.6-3.4-4.6-6.3c0.6-0.2,1.3-0.5,1.9-0.7c0.6-0.3,1.3-0.5,2-0.7c5.6-0.7-2,7,1.4,7.9
		L283.7,72.6z"/>
	<path class="st0" d="M282.9,64.9c-0.7,0.2-1.4,0.4-2,0.7c-0.6,0.2-1.3,0.5-1.9,0.7c-0.2-4.6,3.5-9.5,9.3-8c9.3,2.7,5.3,17.1-4,14.5
		C281,71.9,288.5,64.2,282.9,64.9z"/>
	<path class="st0" d="M275.8,67.6c1-0.5,2.1-0.9,3.2-1.4c0,2.9,1.9,5.4,4.6,6.3c-3.4-1-6.6-2.3-9.8-4
		C274.5,68.2,275.2,67.9,275.8,67.6z"/>
	<path class="st0" d="M269.5,218.4c0.1,4.8-0.4,9.7-1.4,14.4c-3,1.9-6.2,3.6-9.4,5.2c2.2-5.8,3.3-12,3.3-18.2c0-0.3,0-0.5,0-0.8
		c2.5-1.6,4.9-3.3,7.2-5C269.4,215.5,269.4,217,269.5,218.4z"/>
	<path class="st0" d="M269.2,214.1c-2.3,1.8-4.7,3.5-7.2,5c-0.2-12.4-4.8-24.3-13.1-33.6c3.3,0.4,6.7,0.7,10,0.9
		C264.6,194.6,268.2,204.1,269.2,214.1z"/>
	<path class="st2" d="M298.1,182.4c-7.7,12.2-17.4,22.9-28.9,31.6c-1-10-4.6-19.5-10.3-27.7C272.1,187.1,285.3,185.7,298.1,182.4z"
		/>
	<path class="st0" d="M262,219.9c0,6.2-1.1,12.4-3.3,18.2c-3.5,1.8-7.1,3.4-10.8,4.9c3.6-5.9,5.8-12.5,6.4-19.4
		c2.6-1.4,5.2-2.9,7.7-4.5C262,219.4,262,219.6,262,219.9z"/>
	<path class="st0" d="M248.9,185.5c8.3,9.3,12.9,21.2,13.1,33.6c-2.5,1.6-5.1,3.1-7.7,4.5c0.2-2.2,0.3-4.4,0.1-6.6
		c-0.9-14.1-8.6-26.9-20.6-34.3C238.8,183.9,243.9,184.8,248.9,185.5z"/>
	<path class="st0" d="M256.1,36.2c0,1.4-1.1,3.5-1.6,4.7c-0.8,1.9-1.6,3.9-2.5,5.7c-1-1.9-1.9-3.8-2.6-5.7c-0.5-1.1-0.9-2.2-1.2-3.4
		c-0.1-0.5-0.3-0.9-0.4-1.4H256.1z"/>
	<path class="st0" d="M249.4,41c0.8,2,1.6,3.9,2.6,5.7c-0.6,1.2-1.3,2.4-2,3.6c-3.8,6-8.8,11.1-14.6,15.2c-1.7,1.2-3.4,2.2-5.3,3.1
		c-2.5-1.3-5.1-2.4-7.8-3.3c-0.9-0.4-1.8-0.7-2.7-0.8v4.2c-1.3,3.4-1.1,4.7,0.7,3.9c1.4,0,3.4-1.1,4.7-1.6c1.7-0.7,3.4-1.5,5.1-2.3
		c4,2.1,7.7,4.7,11.1,7.8c4.4,4,8,8.7,10.7,14c-1.5,2.8-3.3,6.2-3.7,9.2c-0.4,2.5-2.1,1.4,3.8,1.4c4.9,0,4.5,1,3.5-2.1
		c-0.7-2-1.4-3.9-2.3-5.8c-0.4-0.9-0.8-1.8-1.3-2.7l0.6-1.1c5-8.9,12.4-16.1,21.4-20.8c3.1,1.7,6.4,3,9.8,4l0.6,0.2
		c9.3,2.7,13.3-11.8,4-14.5c5.1,1.5,8.4,6.5,7.7,11.8c-0.7,5.3-4.5,7.7-9.1,9.3c-9.5,3.3-17.1,9.3-21.8,18.2
		c-2,3.7-2.4,8.4-5.2,11.7c-3,3.4-7.9,4.5-12.2,2.7c-5-2.1-5.7-6.5-7.4-11c-1.4-3.6-3.4-6.9-5.9-9.9c-2.9-3.4-6.3-6.3-10.2-8.5
		c-3.5-2-7.5-2.6-10.9-4.5c-4.3-2.4-6.5-7.4-5.2-12.2c1.2-4.5,4.7-6.5,8.8-7.8c8-2.5,14.9-7.7,19.6-14.6c4.5-6.8,5.2-19.3,15.8-18.9
		c9.9,0.4,10.6,12.3,14.9,18.9c5,7.4,12.4,12.7,21,15c-5.8-1.6-9.5,3.4-9.3,8c-1.1,0.4-2.1,0.9-3.2,1.4c-0.7,0.3-1.3,0.6-1.9,1
		c-9.3-4.9-17-12.5-21.9-21.9c1-1.9,1.8-3.8,2.5-5.7c0.5-1.3,1.6-3.3,1.6-4.7h-8.3c0.1,0.5,0.3,0.9,0.4,1.4
		C248.4,38.8,248.8,39.9,249.4,41z"/>
	<path class="st0" d="M255.5,98.9c1,3.1,1.3,2.1-3.5,2.1c-5.9,0-4.1,1.1-3.8-1.4c0.4-3,2.2-6.4,3.7-9.2c0.5,0.9,0.9,1.8,1.3,2.7
		C254.1,95,254.8,97,255.5,98.9z"/>
	<path class="st1" d="M252,46.7c4.9,9.3,12.6,16.9,21.9,21.9c-9,4.7-16.4,11.9-21.4,20.8l-0.6,1.1c-2.7-5.3-6.3-10-10.7-14
		c-3.4-3.1-7.1-5.7-11.1-7.8c1.8-0.9,3.6-2,5.3-3.1c5.8-4.1,10.8-9.2,14.6-15.2C250.7,49.1,251.4,47.9,252,46.7z"/>
	<path class="st0" d="M227.1,165.1c4.2,1.4,8.4,2.6,12.7,3.5c7.6,4.4,14.1,10.5,19.1,17.7c-3.3-0.2-6.7-0.5-10-0.9
		c-5.7-6.4-12.9-11.3-20.9-14.2c0.3-1.3,0.3-2.8-0.2-4.1C227.6,166.5,227.4,165.8,227.1,165.1z"/>
	<path class="st0" d="M239.8,168.7c22.2,4.9,45.3,3.3,66.6-4.5l0.6,1.5c-2.5,5.8-5.5,11.4-8.9,16.8c-12.8,3.3-26,4.6-39.2,3.9
		C253.9,179.2,247.4,173.1,239.8,168.7z"/>
	<path class="st0" d="M239.8,168.7c-4.3-0.9-8.5-2.1-12.7-3.5c-0.3-0.8-0.5-1.5-0.8-2.2C231.1,164.2,235.6,166.2,239.8,168.7z"/>
	<path class="st0" d="M222.3,65.3c2.7,0.9,5.3,2,7.8,3.3c-1.7,0.9-3.4,1.6-5.1,2.3c-1.3,0.5-3.3,1.7-4.7,1.6c-1.8,0.8-2-0.6-0.7-3.9
		v-4.2C220.5,64.6,221.5,64.9,222.3,65.3z"/>
	<path class="st0" d="M163,110.8c0.7,0.1,1.3,0.2,2,0.3c28.1,4.9,51.2,25.4,61.3,51.7c-1.2-0.4-2.5-0.7-3.7-1
		c-1.2-0.3-2.4-0.3-3.6,0c-0.4-0.2-0.8-0.4-1.3-0.6c-9.2-20.9-27.4-36.4-49.5-41.9C166.3,116.7,164.6,113.8,163,110.8z"/>
	<path class="st0" d="M219,162c1.2-0.3,2.4-0.3,3.6,0c1.3,0.3,2.5,0.6,3.7,1c0.3,0.8,0.6,1.5,0.8,2.2
		C224.4,164.2,221.7,163.1,219,162z"/>
	<path class="st0" d="M218.1,162.3c0.3-0.1,0.6-0.2,0.9-0.3c2.7,1.1,5.4,2.2,8.2,3.1c0.2,0.7,0.5,1.4,0.7,2c0.5,1.3,0.5,2.7,0.2,4.1
		c-2.4-0.9-4.9-1.6-7.4-2.1C219.9,166.8,219,164.5,218.1,162.3z"/>
	<path class="st0" d="M217.7,161.4c0.4,0.2,0.8,0.4,1.3,0.6c-0.3,0.1-0.6,0.2-0.9,0.3C218,162,217.8,161.7,217.7,161.4z"/>
	<path class="st0" d="M213.3,171c-0.5-3.6,1.4-7.2,4.8-8.7c1,2.3,1.8,4.6,2.5,6.9c2.5,0.5,5,1.2,7.4,2.1c-1.7,6.1-12.2,7.5-14.6-0.1
		L213.3,171z"/>
	<path class="st0" d="M213.4,171.2c2.5,7.6,13,6.2,14.6,0.1c8,2.9,15.2,7.8,20.9,14.2c-5.1-0.6-10.1-1.6-15-2.8
		c-4.7-3-9.9-5.1-15.3-6.3c-2.8-0.4-4.9-2.7-5.3-5.4L213.4,171.2z"/>
	<path class="st0" d="M217.7,161.4c0.1,0.3,0.2,0.6,0.4,0.9c-3.3,1.5-5.3,5.1-4.8,8.7c-1.8-5.5-4.3-10.7-7.4-15.6
		C209.7,157.6,213.7,159.6,217.7,161.4z"/>
	<path class="st0" d="M168.2,119.5c22.1,5.6,40.4,21.1,49.5,41.9c-4-1.8-8-3.8-11.8-6c-7.2-11.2-17.7-20-30-25.3
		C173.2,126.7,170.6,123.2,168.2,119.5z"/>
	<path class="st0" d="M147.4,0.6c5.1-2.2,13.9,1.6,11,8.5c-0.7,1.7-1.4,3.3-2,5l-1.5-0.6l-11-8.5l-1.1-2.4
		C144.3,2,145.8,1.3,147.4,0.6z"/>
	<path class="st0" d="M154.9,13.6l1.5,0.6c-11.7,31.7-9.3,66.9,6.6,96.7c-5.6-0.9-11.4-1.1-17.1-0.8c-12.5-27.4-15.3-58.3-7.9-87.6
		C143.5,19.1,149.1,16.1,154.9,13.6z"/>
	<path class="st0" d="M150.2,117.3c6.1,0,12.1,0.7,18,2.2c2.4,3.7,5,7.2,7.8,10.6c-4.4-1.9-8.9-3.3-13.6-4.2
		c-2.8-0.6-5.7-0.9-8.6-1.1c-1.5-2.5-3-5-4.3-7.5L150.2,117.3z"/>
	<path class="st0" d="M88.8,150.2c13.5-20.4,36.3-32.7,60.7-32.9c1.3,2.6,2.8,5.1,4.3,7.5c-23.3-1.1-45.4,9.9-58.6,29.2
		c-1.3,2-3.3,3.3-5.6,3.7c-0.9-2.6-1.7-5.3-2.4-7.9C87.8,149.9,88.3,150,88.8,150.2z"/>
	<path class="st0" d="M146,110c5.7-0.3,11.4-0.1,17.1,0.8c1.6,2.9,3.3,5.8,5.1,8.6c-5.9-1.5-11.9-2.2-18-2.2h-0.7
		C148.3,114.9,147.1,112.5,146,110z"/>
	<path class="st0" d="M146,110c1.1,2.4,2.3,4.9,3.5,7.2c-24.5,0.2-47.2,12.5-60.7,32.9c-0.5-0.2-1-0.3-1.5-0.5
		c-0.4-1.6-0.8-3.2-1.2-4.9l4.7-1.9c-1.6-0.5-3.3-0.9-5-1.3C100.4,122.9,122.3,111.4,146,110z"/>
	<path class="st0" d="M142.8,2.7l1.1,2.4c-2.4,5.6-4.3,11.4-5.8,17.4c-24.8,15.5-42.9,39.8-50.7,68c-4.5,16.6-5.1,34.1-1.9,51
		c-5.2-1.2-10.5-1.8-15.8-1.7C61.5,83,91.1,27.5,142.8,2.7L142.8,2.7z"/>
	<path class="st2" d="M146,110c-23.7,1.4-45.6,12.9-60.2,31.6l-0.4-0.1c-3.2-16.9-2.5-34.4,1.9-51c7.8-28.2,25.9-52.5,50.7-68
		C130.7,51.8,133.5,82.6,146,110z"/>
	<path class="st0" d="M87.3,149.7c0.7,2.7,1.5,5.3,2.4,7.9c-0.9,0.1-1.9,0-2.8-0.2c-4.5-1.4-9.2-2.2-14-2.5
		c-0.7-2.6-1.3-5.1-1.8-7.7C76.5,147.3,82,148.2,87.3,149.7z"/>
	<path class="st0" d="M85.8,141.6c1.7,0.4,3.3,0.8,5,1.3l-4.7,1.9c-0.2-1-0.4-1.9-0.6-2.9L85.8,141.6z"/>
	<path class="st0" d="M85.5,142c0.2,1,0.4,1.9,0.6,2.9l-3.8,1.5C83.4,144.9,84.4,143.4,85.5,142z"/>
	<path class="st0" d="M85.5,142l-0.1-0.5l0.4,0.1L85.5,142z"/>
	<path class="st0" d="M85.5,142c-1.1,1.4-2.2,2.9-3.2,4.4l3.8-1.5c0.3,1.6,0.7,3.2,1.2,4.9c-5.3-1.6-10.8-2.4-16.3-2.5
		c-0.5-2.4-0.9-4.9-1.3-7.4c5.3,0,10.6,0.6,15.7,1.7L85.5,142z"/>
	<path class="st0" d="M7.4,209.4c0-34.3,27.9-62.2,62.2-62.2c0.4,0,0.9,0,1.3,0c0.5,2.6,1.1,5.2,1.8,7.7c-18-0.9-35.9,6.6-47.1,21.7
		c-18.1,24.3-13.1,58.6,11.2,76.6c9.5,7,20.9,10.8,32.7,10.8c5.5,0,11,0,16.5,0h115.5c8.5,0,16.6,0.2,24.7-3
		c9-3.5,16.6-9.9,21.6-18.2c3.7-1.5,7.3-3.1,10.8-4.9c-7.6,20.2-26.9,33.5-48.4,33.5H69.6C35.3,271.6,7.4,243.7,7.4,209.4z"/>
	<path class="st0" d="M7.4,209.4c0,34.4,27.9,62.2,62.2,62.2c0,0,0,0,0,0h140.6c21.6,0,40.9-13.4,48.4-33.5c3.2-1.6,6.3-3.4,9.4-5.2
		c-4.8,20.4-19.8,36.8-39.7,43.5c-9.5,3.1-19.2,2.8-29,2.8H75.9c-12.7,0-24.8-1.4-36.5-6.9C19.1,262.4,4.7,243.4,0.9,221
		c-3.7-22.8,3.9-46.5,20.8-62.4c13-12.2,30.2-18.9,48-18.9c0.4,2.5,0.8,4.9,1.3,7.4c-0.4,0-0.9,0-1.3,0
		C35.3,147.2,7.4,175,7.4,209.4z"/>
</g>
</svg>
