<?xml version="1.0" encoding="utf-8"?>
<!-- Generator: Adobe Illustrator 24.0.3, SVG Export Plug-In . SVG Version: 6.00 Build 0)  -->
<svg version="1.1" id="Layer_1" xmlns="http://www.w3.org/2000/svg" xmlns:xlink="http://www.w3.org/1999/xlink" x="0px" y="0px"
	 viewBox="0 0 269.4 221" style="enable-background:new 0 0 269.4 221;" xml:space="preserve">
<style type="text/css">
	.st0{fill:#FFFFFF;}
	.st1{fill:#231815;}
	.st2{fill:none;}
	.st3{fill:#2EA7E0;}
</style>
<title></title>
<g id="图层_1">
	<path class="st0" d="M210.2,161.7c28.6,0,51.8-23.2,51.8-51.7c0-24.6-17.3-45.8-41.4-50.7c-12-38.9-53.3-60.7-92.2-48.6
		c-16.2,5-30.2,15.5-39.6,29.6c-32.7-10.6-67.8,7.3-78.4,40s7.3,67.8,40,78.4c6.2,2,12.7,3,19.2,3"/>
	<path class="st1" d="M210.2,169.2c29.9-0.3,55-22.7,58.8-52.3c3.7-30-17-58.5-46.5-64.9l5.2,5.2c-9.1-28.4-33.2-50.8-62.8-56
		c-32.1-5.7-64.5,8.2-82.7,35.2l8.5-3.4c-31.4-9.7-66.4,3.8-82.3,32.8c-15.2,27.6-9.6,63.4,13.7,84.8c13,11.9,29.9,18.5,47.4,18.6
		c9.7,0.1,9.7-14.9,0-15c-24.5-0.3-46.4-16.6-52.8-40.4c-6.3-24,4.1-49.3,25.6-61.8c13.6-7.8,29.5-9.1,44.4-4.5
		c3.3,1,6.6-0.7,8.5-3.4c14.6-21.5,41.4-33.1,67.2-28.1c24,4.7,43.5,22,51,45.3c0.7,2.5,2.7,4.5,5.2,5.2c22.5,4.9,38.5,25.8,35.6,49
		c-2.7,22.1-22,38.4-44,38.7C200.5,154.3,200.5,169.3,210.2,169.2L210.2,169.2z"/>
	<line class="st2" x1="89.6" y1="127.7" x2="82.2" y2="108.5"/>
	<path class="st3" d="M96.8,125.7l-7.4-19.2c-1.4-3.8-5-6.4-9.2-5.2c-3.6,1-6.7,5.4-5.2,9.2l7.4,19.2c1.4,3.8,5,6.4,9.2,5.2
		C95.2,134,98.3,129.6,96.8,125.7L96.8,125.7z"/>
	<line class="st2" x1="127.6" y1="127.7" x2="120.2" y2="108.5"/>
	<path class="st3" d="M134.8,125.8l-7.4-19.2c-1.4-3.8-5-6.4-9.2-5.2c-3.6,1-6.7,5.4-5.2,9.2l7.4,19.2c1.4,3.8,5,6.4,9.2,5.2
		C133.2,134,136.3,129.6,134.8,125.8L134.8,125.8z"/>
	<line class="st2" x1="165.5" y1="127.7" x2="158.2" y2="108.5"/>
	<path class="st3" d="M172.8,125.8l-7.4-19.2c-1.5-3.8-5-6.4-9.2-5.2c-3.6,1-6.7,5.4-5.2,9.2l7.4,19.2c1.5,3.8,5,6.4,9.2,5.2
		C171.1,134,174.2,129.6,172.8,125.8L172.8,125.8z"/>
	<line class="st2" x1="106.1" y1="170.6" x2="98.7" y2="151.4"/>
	<path class="st3" d="M113.3,168.6l-7.4-19.2c-1.4-3.8-5-6.4-9.2-5.2c-3.6,1-6.7,5.4-5.2,9.2l7.4,19.2c1.4,3.8,5,6.4,9.2,5.2
		C111.7,176.9,114.8,172.4,113.3,168.6L113.3,168.6z"/>
	<line class="st2" x1="144" y1="170.6" x2="136.7" y2="151.4"/>
	<path class="st3" d="M151.3,168.6l-7.4-19.2c-1.5-3.8-5-6.4-9.2-5.2c-3.6,1-6.7,5.4-5.2,9.2l7.4,19.2c1.4,3.8,5,6.4,9.2,5.2
		C149.6,176.9,152.7,172.4,151.3,168.6L151.3,168.6z"/>
	<line class="st2" x1="182" y1="170.6" x2="174.6" y2="151.4"/>
	<path class="st3" d="M189.2,168.6l-7.4-19.2c-1.5-3.8-5-6.4-9.2-5.2c-3.6,1-6.7,5.4-5.2,9.2l7.4,19.2c1.5,3.8,5,6.4,9.2,5.2
		C187.6,176.9,190.7,172.4,189.2,168.6L189.2,168.6z"/>
	<line class="st2" x1="122.5" y1="213.5" x2="115.2" y2="194.3"/>
	<path class="st3" d="M129.8,211.5l-7.4-19.2c-1.4-3.8-5-6.4-9.2-5.2c-3.6,1-6.7,5.4-5.2,9.2l7.4,19.2c1.4,3.8,5,6.4,9.2,5.2
		C128.2,219.7,131.2,215.3,129.8,211.5z"/>
	<line class="st2" x1="160.5" y1="213.5" x2="153.1" y2="194.3"/>
	<path class="st3" d="M167.7,211.5l-7.4-19.2c-1.5-3.8-5-6.4-9.2-5.2c-3.6,1-6.7,5.4-5.2,9.2l7.4,19.2c1.5,3.8,5,6.4,9.2,5.2
		C166.1,219.7,169.2,215.3,167.7,211.5z"/>
	<line class="st2" x1="198.5" y1="213.5" x2="191.1" y2="194.3"/>
	<path class="st3" d="M205.7,211.5l-7.4-19.2c-1.5-3.8-5-6.4-9.2-5.2c-3.6,1-6.7,5.4-5.2,9.2l7.4,19.2c1.5,3.8,5,6.4,9.2,5.2
		C204.1,219.7,207.2,215.3,205.7,211.5z"/>
</g>
</svg>
