<?xml version="1.0" encoding="UTF-8"?>
<svg width="20px" height="21px" viewBox="0 0 20 21" version="1.1" xmlns="http://www.w3.org/2000/svg" xmlns:xlink="http://www.w3.org/1999/xlink" fill="#fff">
    <path d="M17.43,11.8879433 C17.47,11.5702128 17.5,11.2524823 17.5,10.9148936 C17.5,10.577305 17.47,10.2595745 17.43,9.94184397 L19.54,8.3035461 C19.73,8.15460993 19.78,7.88652482 19.66,7.66808511 L17.66,4.23262411 C17.54,4.0141844 17.27,3.93475177 17.05,4.0141844 L14.56,5.0070922 C14.04,4.60992908 13.48,4.2822695 12.87,4.03404255 L12.49,1.40283688 C12.46,1.16453901 12.25,0.985815603 12,0.985815603 L8,0.985815603 C7.75,0.985815603 7.54,1.16453901 7.51,1.40283688 L7.13,4.03404255 C6.52,4.2822695 5.96,4.61985816 5.44,5.0070922 L2.95,4.0141844 C2.72,3.9248227 2.46,4.0141844 2.34,4.23262411 L0.34,7.66808511 C0.21,7.88652482 0.27,8.15460993 0.46,8.3035461 L2.57,9.94184397 C2.53,10.2595745 2.5,10.587234 2.5,10.9148936 C2.5,11.2425532 2.53,11.5702128 2.57,11.8879433 L0.46,13.5262411 C0.27,13.6751773 0.22,13.9432624 0.34,14.1617021 L2.34,17.5971631 C2.46,17.8156028 2.73,17.8950355 2.95,17.8156028 L5.44,16.822695 C5.96,17.2198582 6.52,17.5475177 7.13,17.7957447 L7.51,20.4269504 C7.54,20.6652482 7.75,20.8439716 8,20.8439716 L12,20.8439716 C12.25,20.8439716 12.46,20.6652482 12.49,20.4269504 L12.87,17.7957447 C13.48,17.5475177 14.04,17.2099291 14.56,16.822695 L17.05,17.8156028 C17.28,17.9049645 17.54,17.8156028 17.66,17.5971631 L19.66,14.1617021 C19.78,13.9432624 19.73,13.6751773 19.54,13.5262411 L17.43,11.8879433 L17.43,11.8879433 Z M10,14.3900709 C8.07,14.3900709 6.5,12.8312057 6.5,10.9148936 C6.5,8.99858156 8.07,7.43971631 10,7.43971631 C11.93,7.43971631 13.5,8.99858156 13.5,10.9148936 C13.5,12.8312057 11.93,14.3900709 10,14.3900709 L10,14.3900709 Z"></path>
</svg>
