<?xml version="1.0" encoding="utf-8"?>
<!-- Generator: Adobe Illustrator 24.0.3, SVG Export Plug-In . SVG Version: 6.00 Build 0)  -->
<svg version="1.1" id="Layer_1" xmlns="http://www.w3.org/2000/svg" xmlns:xlink="http://www.w3.org/1999/xlink" x="0px" y="0px"
	 viewBox="0 0 269.4 222.9" style="enable-background:new 0 0 269.4 222.9;" xml:space="preserve">
<style type="text/css">
	.st0{fill:#FFFFFF;}
	.st1{fill:#231815;}
	.st2{fill:#2EA7E0;}
</style>
<title></title>
<g id="图层_1">
	<path class="st0" d="M210.2,161.7c28.6,0,51.8-23.2,51.8-51.7c0-24.6-17.3-45.8-41.4-50.7c-12-38.9-53.3-60.7-92.2-48.6
		c-16.2,5-30.2,15.5-39.6,29.6c-32.7-10.6-67.8,7.3-78.4,40s7.3,67.8,40,78.4c6.2,2,12.7,3,19.2,3"/>
	<path class="st1" d="M210.2,169.2c29.9-0.3,55-22.7,58.8-52.3c3.7-30-17-58.5-46.5-64.9l5.2,5.2c-9.1-28.4-33.2-50.8-62.8-56
		c-32.1-5.7-64.5,8.2-82.7,35.2l8.5-3.4c-31.4-9.7-66.4,3.8-82.3,32.8c-15.2,27.6-9.6,63.4,13.7,84.8c13,11.9,29.9,18.5,47.4,18.6
		c9.7,0.1,9.7-14.9,0-15c-24.5-0.3-46.4-16.6-52.8-40.4c-6.3-24,4.1-49.3,25.6-61.8c13.6-7.8,29.5-9.1,44.4-4.5
		c3.3,1,6.6-0.7,8.5-3.4c14.6-21.5,41.4-33.1,67.2-28.1c24,4.7,43.5,22,51,45.3c0.7,2.5,2.7,4.5,5.2,5.2c22.5,4.9,38.5,25.8,35.6,49
		c-2.7,22.1-22,38.4-44,38.7C200.5,154.3,200.5,169.3,210.2,169.2L210.2,169.2z"/>
	<path class="st2" d="M190.4,181.9l-4.6-2.7l3.1-1.8c8.3-4.9,0.8-17.8-7.6-13l-8.5,4.9c-0.7,0.4-1.4,0.8-2.2,1.2l-3-1.7v-14.4l3-1.7
		c0.8,0.4,1.5,0.8,2.2,1.2l8.5,4.9c8.4,4.9,15.9-8.1,7.6-13l-3.1-1.8l3-1.7l1.9-1.1c6.8-3.9,3.1-13.1-3-14c-0.5-0.1-1-0.1-1.6,0
		c-1.1,0.1-2.1,0.5-3.1,1l-4.8,2.8c0-1.2,0-2.4,0-3.6c0-0.2,0-0.5,0-0.7c-0.6-7.9-11.8-8.7-14.4-2.3c-0.4,1-0.6,2-0.6,3v9.8
		c0,0.7,0,1.6-0.1,2.4v0.1l-3.8,2.2l-6.2-3.6c-1-0.6-2.2-1.4-3.5-2.2c-0.6-0.4-1.3-0.9-2-1.3v-4.1c0.8-0.5,1.5-1,2.2-1.3l8.5-4.9
		c0.5-0.3,1-0.6,1.5-1c5.9-5.4-1.2-16.4-9-11.9l-3.1,1.8V108c0-9.6-15-9.7-15,0v5.3l-3.1-1.8c-7.2-4.1-13.8,4.9-10.2,10.6
		c0.7,1,1.6,1.8,2.6,2.4l8.5,4.9c0.7,0.4,1.4,0.9,2.2,1.3v4.2c-1.8,1.1-3.4,2.3-4.9,3.1l-6.7,3.9l-3.9-2.3c0-0.9-0.1-1.7-0.1-2.5
		v-9.8c0-9.6-15-9.7-15,0c0,1.2,0,2.4,0,3.6l-4.8-2.8c-8.4-4.8-15.9,8.1-7.6,13l4.8,2.8l-3.1,1.8c-8.3,4.9-0.8,17.8,7.6,13l8.4-4.9
		c0.7-0.4,1.4-0.8,2.2-1.2l3.2,1.9v14.2l-3.2,1.9c-0.8-0.4-1.5-0.8-2.2-1.2l-8.4-4.9c-8.4-4.9-15.9,8.1-7.6,13l3.1,1.8l-4.6,2.7
		c-8.4,4.8-0.8,17.8,7.6,13l4.6-2.6c0,1.2,0,2.4,0,3.6c0,9.6,15,9.7,15,0v-9.8c0-0.8,0-1.6,0.1-2.5l2.4-1.4l7.9,4.5
		c1.5,0.9,3.4,2.2,5.3,3.4v2.4c-0.8,0.5-1.5,1-2.2,1.3l-8.5,4.9c-8.4,4.8-0.8,17.8,7.6,13l3.1-1.8v5.5c0,9.6,15,9.7,15,0v-5.5
		l3.1,1.8c8.4,4.8,16-8.1,7.6-13l-8.5-4.9c-0.7-0.4-1.4-0.9-2.2-1.3v-2.3c1.9-1.1,3.6-2.4,5.1-3.2l8.2-4.7l2.3,1.3
		c0,0.9,0.1,1.7,0.1,2.5v9.8c0,9.6,15,9.7,15,0c0-1.2,0-2.4,0-3.6l4.6,2.6C191.2,199.7,198.8,186.8,190.4,181.9z M140.3,176.8
		l-0.1-0.1l-5.7-3.3l-1.8-1.1l-4.8-2.8v-14.3l0.7-0.4l4.1-2.4l3.4-2l4.1-2.4l0.1-0.1l4.1,2.4l3.3,1.9l4.2,2.4l0.8,0.5v14.3l-5,2.9
		l-1.7,1L140.3,176.8z"/>
</g>
</svg>
