<?xml version="1.0" encoding="utf-8"?>
<!-- Generator: Adobe Illustrator 24.0.3, SVG Export Plug-In . SVG Version: 6.00 Build 0)  -->
<svg version="1.1" id="Layer_1" xmlns="http://www.w3.org/2000/svg" xmlns:xlink="http://www.w3.org/1999/xlink" x="0px" y="0px"
	 viewBox="0 0 269.4 242.1" style="enable-background:new 0 0 269.4 242.1;" xml:space="preserve">
<style type="text/css">
	.st0{fill:#DCDDDD;}
	.st1{fill:#231815;}
	.st2{fill:#FFFFFF;}
</style>
<title></title>
<g id="图层_1">
	<path class="st0" d="M210.2,161.7c28.6,0,51.8-23.2,51.8-51.7c0-24.6-17.3-45.8-41.4-50.7c-12-38.9-53.3-60.7-92.2-48.6
		c-16.2,5-30.2,15.5-39.6,29.6c-32.7-10.6-67.8,7.3-78.4,40s7.3,67.8,40,78.4c6.2,2,12.7,3,19.2,3"/>
	<path class="st1" d="M210.2,169.2c29.9-0.3,55-22.7,58.8-52.3c3.7-30-17-58.5-46.5-64.9l5.2,5.2c-9.1-28.4-33.2-50.8-62.8-56
		c-32.1-5.7-64.5,8.2-82.7,35.2l8.5-3.4c-31.4-9.7-66.4,3.8-82.3,32.8c-15.2,27.6-9.6,63.4,13.7,84.8c13,11.9,29.9,18.5,47.4,18.6
		c9.7,0.1,9.7-14.9,0-15c-24.5-0.3-46.4-16.6-52.8-40.4c-6.4-24,4.1-49.3,25.6-61.9c13.6-7.8,29.5-9.1,44.4-4.5
		c3.3,1,6.6-0.7,8.5-3.4c14.6-21.5,41.4-33.1,67.2-28.1c24,4.7,43.5,22,51,45.3c0.7,2.5,2.7,4.5,5.2,5.2c22.5,4.9,38.5,25.8,35.6,49
		c-2.7,22.1-22,38.4-44,38.7C200.5,154.3,200.5,169.3,210.2,169.2L210.2,169.2z"/>
	<circle class="st2" cx="110.9" cy="161.7" r="17.6"/>
	<path class="st1" d="M121,161.7c-0.5,13.1-20.2,13-20.2,0S120.5,148.6,121,161.7c0.4,9.6,15.4,9.7,15,0
		c-0.5-13.7-11.1-25.1-25.1-25.1c-13.9,0-25.1,11.2-25.1,25.1c0,13.9,11.2,25.1,25.1,25.1c0,0,0,0,0,0c14,0,24.6-11.5,25.1-25.1
		C136.4,152.1,121.4,152.1,121,161.7z"/>
	<circle class="st2" cx="169.5" cy="161.7" r="17.6"/>
	<path class="st1" d="M179.6,161.7c-0.5,13.1-20.2,13-20.2,0S179.1,148.6,179.6,161.7c0.4,9.6,15.4,9.7,15,0
		c-0.5-13.7-11.1-25.1-25.1-25.1c-13.9,0-25.1,11.2-25.1,25.1c0,13.9,11.2,25.1,25.1,25.1c0,0,0,0,0,0c14,0,24.6-11.5,25.1-25.1
		C195,152.1,180,152.1,179.6,161.7z"/>
	<circle class="st2" cx="81.6" cy="217" r="17.6"/>
	<path class="st1" d="M91.7,217c-0.5,13.1-20.2,13-20.2,0S91.2,203.9,91.7,217c0.4,9.6,15.4,9.7,15,0c-0.5-13.7-11.1-25.1-25.1-25.1
		c-13.9,0-25.1,11.3-25.1,25.1c0,13.9,11.2,25.1,25.1,25.1c14,0,24.6-11.5,25.1-25.1C107.1,207.3,92.1,207.3,91.7,217z"/>
	
		<ellipse transform="matrix(0.1602 -0.9871 0.9871 0.1602 -96.437 320.6116)" class="st2" cx="140.2" cy="217" rx="17.6" ry="17.6"/>
	<path class="st1" d="M150.3,217c-0.5,13.1-20.2,13-20.2,0S149.8,203.9,150.3,217c0.4,9.6,15.4,9.7,15,0
		c-0.5-13.7-11.1-25.1-25.1-25.1c-13.9,0-25.1,11.3-25.1,25.1c0,13.9,11.2,25.1,25.1,25.1c14,0,24.6-11.5,25.1-25.1
		C165.6,207.3,150.6,207.3,150.3,217z"/>
	<circle class="st2" cx="198.8" cy="217" r="17.6"/>
	<path class="st1" d="M208.9,217c-0.5,13.1-20.2,13-20.2,0S208.4,203.9,208.9,217c0.4,9.6,15.4,9.7,15,0
		c-0.5-13.7-11.1-25.1-25.1-25.1c-13.9,0-25.1,11.3-25.1,25.1c0,13.9,11.2,25.1,25.1,25.1c14,0,24.6-11.5,25.1-25.1
		C224.3,207.3,209.3,207.3,208.9,217z"/>
</g>
</svg>
