<?xml version="1.0" encoding="utf-8"?>
<!-- Generator: Adobe Illustrator 24.0.3, SVG Export Plug-In . SVG Version: 6.00 Build 0)  -->
<svg version="1.1" id="Layer_1" xmlns="http://www.w3.org/2000/svg" xmlns:xlink="http://www.w3.org/1999/xlink" x="0px" y="0px"
	 viewBox="0 0 269.4 233.9" style="enable-background:new 0 0 269.4 233.9;" xml:space="preserve">
<style type="text/css">
	.st0{fill:#231815;}
	.st1{fill:#FFFFFF;}
</style>
<title></title>
<g id="图层_1">
	<path class="st0" d="M191.3,15.5c-0.4-7.8-11-8.8-14.1-3l-1-0.4c-0.1-2.8-0.5-5.6-0.9-8.3c5.5,1.8,10.8,4.2,15.8,7.2
		C191.3,12.5,191.3,14,191.3,15.5z"/>
	<path class="st0" d="M176.3,16c0-0.3,0-0.6,0-0.8c0,0,0.1,0,0.1,0C176.4,15.4,176.4,15.7,176.3,16z"/>
	<path class="st0" d="M214,111.3c0,12.2-9.9,22.1-22.1,22.1H80.5l19.6-7.5h79.3c6.3,0,14.7,1.3,20.3-2.2c6.9-4.4,8.9-13.5,4.5-20.4
		c-0.2-0.4-0.5-0.8-0.8-1.1c-6.3-8-17.3-6.6-23.5,0.6c-4.1,4.8-10.1,1.9-12-2.8l6.6-2.5c7.6-9.6,21.6-11.1,31.1-3.5
		C210.9,98.2,214,104.5,214,111.3L214,111.3z"/>
	<path class="st0" d="M88.7,40.3c-2.3-0.7-4.6-1.3-6.9-1.8l0.4-2c2.8-1.1,5.7-2.3,8.5-3.4l2,1.8C91.3,36.6,90,38.4,88.7,40.3z"/>
	<path class="st0" d="M177.2,12.5c4.7,1.9,9.2,4.2,13.4,7c-0.4,0.8-1,1.5-1.6,2c-1.3-0.8-2.7-1.6-4-2.4c-1-0.6-2.1-1.1-3.1-1.6
		s-1.8-0.9-2.8-1.3s-1.7-0.7-2.6-1.1C176.5,14.2,176.8,13.3,177.2,12.5z"/>
	<path class="st0" d="M14.4,70.1c0.8-1.3,1.6-2.5,2.6-3.8l0.1-0.1c-0.9,1.4-1.7,2.8-2.5,4.2L14.4,70.1z"/>
	<path class="st0" d="M170.7,190c10.1,0,18.3,8.2,18.3,18.3c0,10.1-8.2,18.3-18.3,18.3c-5.6,0-10.8-2.5-14.3-6.9l-5.9-4.1
		c2.4-3.7,7.5-5.5,11.2-1.2c4.4,5,11.5,6.6,16.6,1.5c4.2-4.2,4.2-11,0-15.3c-4.4-4.4-12-3.2-17.7-3.2h-36.3l-10.8-7.5L170.7,190z"/>
	<path class="st1" d="M149,141h37.2c2.4,0,4.7,0.1,7.1,0c12-0.7,22.4-8.4,26.5-19.7c4.6-12.7-0.4-27.1-11.5-34.6
		c-12.4-8.4-29.4-5.7-39,5.5c-1.9,2.1-2.4,5.2-1.4,7.8c1.9,4.6,7.8,7.6,12,2.8c6.2-7.2,17.1-8.6,23.5-0.6c5,6.4,3.9,15.7-2.6,20.8
		c-0.4,0.3-0.7,0.5-1.1,0.8c-5.5,3.5-14,2.2-20.3,2.2H80.5c-9.6,0-9.7,15,0,15L149,141z M192.1,160.5c-0.4-3.6-3.5-6.4-7.2-6.3H95.7
		c-3.7-0.1-6.8,2.6-7.1,6.3H76.7c-0.4-3.6-3.5-6.4-7.1-6.3c-24.5-0.3-46.4-16.6-52.8-40.4c-3.3-12.2-2.2-25.1,3-36.6
		c2.2-4.9,5-9.4,8.5-13.4c4-4.7,8.8-8.7,14.1-11.8c12.4-7,27-9,40.7-5.5c1.2,0.3,2.5,0.6,3.7,1c3.3,1,6.6-0.7,8.5-3.5
		c14.6-21.5,41.4-33.1,67.2-28.1c4.7,0.9,9.4,2.4,13.8,4.3c0.9,0.4,1.7,0.8,2.6,1.2s1.9,1,2.9,1.5c3.1,1.7,6,3.6,8.8,5.7
		c10.8,8.3,18.7,19.7,22.9,32.6c0.7,2.5,2.7,4.5,5.2,5.2c1.6,0.3,3.2,0.8,4.8,1.3c20,6.6,33.5,26.1,30.8,47.7
		c-2.8,22.1-22,38.4-44,38.7c-3.6-0.1-6.7,2.7-7.1,6.3L192.1,160.5z"/>
	<path class="st0" d="M85.7,31.7c-1.2,1.5-2.4,3.1-3.5,4.8l-0.4,2c-21.3-4.3-43.3,2.8-58,18.8c-1.3-2.3-2.5-4.6-3.6-7
		C37.5,33.3,62.1,26.4,85.7,31.7z"/>
	<path class="st0" d="M176.4,15.2c0.9,0.3,1.8,0.7,2.6,1.1s1.9,0.8,2.8,1.3s2.1,1,3.1,1.6c1.4,0.8,2.7,1.5,4,2.4
		c-2.1,1.6-4.8,2.1-7.3,1.4c-1-0.5-1.9-1-2.9-1.5c-1.6-1.4-2.5-3.4-2.4-5.5C176.3,15.7,176.4,15.5,176.4,15.2z"/>
	<path class="st0" d="M95.7,161.7h-7.2c0-0.4,0-0.8,0.1-1.2h103.6c0.1,0.4,0.1,0.8,0.1,1.2H95.7z"/>
	<path class="st0" d="M227.8,57.3l-5.2-5.2c1.3,0.3,2.5,0.6,3.7,0.9C226.8,54.4,227.3,55.8,227.8,57.3z"/>
	<path class="st0" d="M218.9,60.2c-4.5-13.8-13.1-26-24.6-34.9c-1.1-0.8-2.2-1.6-3.3-2.4c0.1-1,0.1-2,0.2-3
		c14,9.4,24.3,23.3,29.3,39.4c18.2,3.7,33,16.9,38.8,34.5c-6.5-14.2-19.4-24.5-34.7-27.7c-0.2,0-0.4-0.1-0.6-0.2
		C221.3,65.2,219.3,62.9,218.9,60.2z"/>
	<path class="st0" d="M191,23c-0.7-0.5-1.4-0.9-2.1-1.4c0.7-0.5,1.2-1.2,1.6-2l0.6,0.4C191.2,20.9,191.1,21.9,191,23z"/>
	<path class="st0" d="M181.6,23c2.5,0.7,5.2,0.2,7.3-1.4c0.7,0.5,1.4,0.9,2.1,1.4c-0.1,1.9-0.4,3.9-0.6,5.8
		C187.6,26.5,184.7,24.6,181.6,23z"/>
	<path class="st0" d="M176.2,12.1l1,0.4c-0.4,0.8-0.7,1.7-0.8,2.7c0,0-0.1,0-0.1,0C176.3,14.2,176.3,13.1,176.2,12.1z"/>
	<path class="st0" d="M64.2,160.5c4.2,0,8.3,0,12.5,0c0.1,0.4,0.1,0.8,0.1,1.2h-7.2c-6.2,0-12.4-0.9-18.4-2.8
		C55.5,159.9,59.8,160.5,64.2,160.5z"/>
	<path class="st0" d="M10,63.1c2.9-4.7,6.3-9,10.2-12.9c1.1,2.4,2.3,4.7,3.6,7C21.3,60,19,63,17,66.1l-0.1,0.1
		c-0.9,1.2-1.8,2.5-2.6,3.8c-0.9-1.3-1.8-2.7-2.7-4.1C11.1,65,10.6,64.1,10,63.1z"/>
	<path class="st0" d="M191.3,16L191.3,16c0,0.2,0,0.4,0,0.5v0.1c-0.1,1-0.3,2-0.8,2.9c-4.2-2.8-8.7-5.1-13.4-7
		c3.1-5.8,13.8-4.8,14.1,3C191.3,15.7,191.3,15.8,191.3,16z"/>
	<path class="st0" d="M10.4,77.5c-7.8,17.7-6.5,38.1,3.4,54.6c8.3,13.6,21.8,23.3,37.4,26.8c6,1.8,12.2,2.8,18.4,2.8h7.2
		c0,3.8-2.4,7.6-7.2,7.5c-17.6-0.1-34.5-6.8-47.4-18.6C-1.1,129.2-6.7,93.5,8.5,65.8c0.5-0.9,1-1.8,1.6-2.7c0.5,1,1.1,1.9,1.7,2.9
		c0.8,1.4,1.7,2.7,2.7,4.1C12.9,72.4,11.6,74.9,10.4,77.5z"/>
	<path class="st0" d="M28.2,63.8c-3.4,4.1-6.3,8.6-8.5,13.4c-1.8-2.2-3.5-4.5-5.1-6.9c0.8-1.4,1.6-2.9,2.5-4.2
		c0.8-1.1,1.6-2.1,2.5-3.1c1.5-1.8,3.1-3.4,4.8-5C25.5,60,26.8,62,28.2,63.8z"/>
	<path class="st0" d="M28.2,63.8c-1.4-1.9-2.6-3.8-3.8-5.7C39.9,44,62.2,39.3,82.7,45.6l0.5,0.1l-0.2,0.8C69.3,43,54.7,45,42.3,52
		C37,55.1,32.2,59.1,28.2,63.8z"/>
	<path class="st0" d="M7.3,99.5c0-10.2,2.5-20.2,7.2-29.1c1.6,2.4,3.3,4.6,5.1,6.9c-5.2,11.5-6.3,24.4-3,36.6
		c6.5,23.8,28.3,40.1,52.8,40.4c3.7-0.1,6.8,2.6,7.1,6.3c-4.2,0-8.3,0-12.5,0c-4.4,0-8.7-0.6-13-1.5C25.1,150.9,7.3,126.8,7.3,99.5z
		"/>
	<path class="st0" d="M225.8,159.3c-6.4,1.3-12.9,1.2-19.5,1.2h-3.2c0.4-3.6,3.5-6.3,7.1-6.3c22-0.3,41.2-16.6,44-38.7
		c2.7-21.6-10.9-41.1-30.8-47.7l0.7-1.9c0.2,0.1,0.4,0.1,0.6,0.2c15.3,3.2,28.2,13.5,34.7,27.7c9,27.2-5.8,56.4-33,65.4
		C226.2,159.2,226,159.3,225.8,159.3L225.8,159.3z"/>
	<path class="st0" d="M95.7,161.7h96.5c0,3.8-2.4,7.5-7.2,7.5H95.7c-4.8,0-7.2-3.8-7.2-7.5H95.7z"/>
	<path class="st0" d="M83.2,45.7c3.4,0.8,6.7-1.1,8.6-3.8c15.8-23.2,44.6-35.7,72.3-30.3c4.2,0.8,8.2,2,12.2,3.5c0,0.3,0,0.6,0,0.8
		c0,1.4-0.1,2.9-0.2,4.3c-4.4-1.9-9-3.4-13.8-4.3c-25.7-5-52.5,6.6-67.1,28.1c-1.8,2.7-5.1,4.5-8.5,3.5c-1.2-0.4-2.5-0.7-3.7-1
		L83.2,45.7z"/>
	<path class="st0" d="M190.6,19.5c0.4-0.9,0.7-1.9,0.8-2.9c0,1.1,0,2.2-0.1,3.3L190.6,19.5z"/>
	<path class="st0" d="M225.8,159.3c-5,1.6-10.3,2.4-15.6,2.4H203c0-0.4,0-0.8,0.1-1.2h3.2C212.9,160.5,219.4,160.6,225.8,159.3z"/>
	<path class="st0" d="M210.2,161.7c5.3,0,10.5-0.8,15.6-2.4c2.4-0.5,4.8-1.1,7.1-2c19.4-7.4,31.5-27,30.4-47.6
		c-0.3-5.5-1.6-10.9-3.9-16c-5.8-17.6-20.6-30.8-38.8-34.5c-5-16.1-15.3-30-29.3-39.4c0-1.1,0.1-2.2,0.1-3.3v-0.1c0-0.1,0-0.3,0-0.4
		V16c0-0.2,0-0.3,0-0.5c0-1.5-0.1-3-0.2-4.5c16.1,9.7,28.4,24.5,35.1,42c-1.2-0.3-2.5-0.7-3.7-0.9l5.2,5.2c-0.5-1.4-1-2.9-1.5-4.3
		c27.4,7.9,46.3,35.2,42.7,63.9c-3.8,29.7-28.9,52-58.8,52.4c-4.9,0.1-7.3-3.7-7.2-7.5L210.2,161.7z"/>
	<path class="st0" d="M7.3,99.5c0,27.3,17.8,51.4,43.9,59.5c-15.6-3.5-29.1-13.2-37.4-26.8c-9.9-16.6-11.2-37-3.4-54.6
		c1.1-2.6,2.4-5,3.9-7.4l0.2,0.3C9.8,79.3,7.3,89.3,7.3,99.5z"/>
	<path class="st0" d="M191.9,133.4c12.2,0,22.1-10,22.1-22.2c0-12.2-10-22.1-22.2-22.1c-6.7,0-13,3.1-17.2,8.3l-6.6,2.5
		c-1.1-2.7-0.6-5.7,1.4-7.8c9.6-11.2,26.7-13.9,39-5.5c11.1,7.5,16.1,22,11.5,34.6c-4.1,11.2-14.5,18.9-26.5,19.6
		c-2.4,0.1-4.7,0-7.1,0H80.5c-9.7,0-9.6-15,0-15h19.6l-19.6,7.5L191.9,133.4z"/>
	<path class="st0" d="M225.8,159.3c27.3-8.6,42.4-37.7,33.8-65c-0.1-0.2-0.1-0.4-0.2-0.6c2.3,5.1,3.6,10.5,3.9,16
		c1.1,20.5-11,40.2-30.4,47.6C230.6,158.2,228.2,158.9,225.8,159.3z"/>
	<path class="st0" d="M176.2,20.3c0.1-1.4,0.1-2.8,0.2-4.3c-0.1,2.1,0.8,4.1,2.4,5.5C177.9,21.1,177.1,20.7,176.2,20.3z"/>
	<path class="st0" d="M24.4,58.1c-1.7,1.6-3.3,3.2-4.8,5c-0.9,1-1.7,2-2.5,3.1c2-3.2,4.3-6.1,6.8-8.9L24.4,58.1z"/>
	<path class="st0" d="M185,154.2c3.7-0.1,6.8,2.6,7.2,6.3H88.6c0.4-3.6,3.5-6.4,7.1-6.3H185z"/>
	<path class="st0" d="M189,208.3c0-10.1-8.2-18.3-18.3-18.3h-57.2l10.8,7.5h-10.8c-9.7,0-9.6-15,0-15h48.6c7.3,0,14.5-0.4,21.2,3.3
		c13.5,7.5,17.1,25.9,7.9,38c-8.8,11.3-25.1,13.4-36.5,4.6c-1.3-1-2.5-2.2-3.6-3.4c-2.3-2.6-2.6-6.5-0.6-9.4l5.9,4.1
		c6.3,7.9,17.8,9.2,25.7,2.9C186.4,219.1,189,213.8,189,208.3L189,208.3z"/>
	<path class="st0" d="M85.7,31.7c1.7,0.4,3.3,0.8,5,1.3c-2.8,1.2-5.6,2.3-8.5,3.4C83.4,34.9,84.5,33.3,85.7,31.7z"/>
	<path class="st0" d="M175.3,3.8c0.4,2.7,0.7,5.5,0.9,8.3c-29.8-11.3-63.5-2.1-83.5,22.8l-2-1.8c-1.6-0.5-3.3-0.9-5-1.3
		C104.4,7.7,134.9-4,164.9,1.3C168.5,1.9,171.9,2.7,175.3,3.8z"/>
	<path class="st0" d="M81.8,38.5c2.3,0.5,4.6,1.1,6.9,1.8c1.2-1.9,2.6-3.7,4-5.4c20-24.9,53.7-34,83.5-22.8c0,1,0.1,2,0.1,3
		c-3.9-1.5-8-2.7-12.2-3.5c-27.7-5.4-56.6,7.1-72.3,30.3c-1.9,2.8-5.2,4.6-8.6,3.8l-0.5-0.1C62.3,39.2,40,43.9,24.4,58l-0.5-0.8
		C38.7,41.3,60.6,34.1,81.8,38.5L81.8,38.5z"/>
	<path class="st0" d="M191.3,16.5c0-0.1,0-0.3,0-0.4C191.3,16.2,191.3,16.4,191.3,16.5z"/>
	<path class="st0" d="M224,65.9l-0.7,1.9c-1.6-0.5-3.2-1-4.8-1.3c-2.5-0.7-4.5-2.7-5.2-5.2c-4.1-12.9-12.1-24.3-22.9-32.6
		c0.3-1.9,0.5-3.8,0.6-5.8c1.1,0.8,2.2,1.6,3.3,2.4c11.5,8.9,20.1,21,24.6,34.9C219.3,62.9,221.3,65.2,224,65.9z"/>
</g>
</svg>
